<?xml version="1.0" encoding="utf-8"?>
<!-- Generator: Adobe Illustrator 23.0.2, SVG Export Plug-In . SVG Version: 6.00 Build 0)  -->
<svg version="1.1" id="Layer_1" xmlns="http://www.w3.org/2000/svg" xmlns:xlink="http://www.w3.org/1999/xlink" x="0px" y="0px"
	 viewBox="0 0 373.15 238.67" style="enable-background:new 0 0 373.15 238.67;" xml:space="preserve">
<style type="text/css">
	.st0{fill:#FFFFFF;}
	.st1{fill:#231F20;}
	.st2{fill:#F58220;}
	.st3{clip-path:url(#SVGID_2_);fill:#FFEFE1;}
	.st4{clip-path:url(#SVGID_2_);fill-rule:evenodd;clip-rule:evenodd;fill:#FFEFE1;}
	.st5{clip-path:url(#SVGID_2_);fill-rule:evenodd;clip-rule:evenodd;fill:#FFEFE0;}
	.st6{clip-path:url(#SVGID_2_);fill-rule:evenodd;clip-rule:evenodd;fill:#FFEEE0;}
	.st7{clip-path:url(#SVGID_2_);fill-rule:evenodd;clip-rule:evenodd;fill:#FFEEDF;}
	.st8{clip-path:url(#SVGID_2_);fill-rule:evenodd;clip-rule:evenodd;fill:#FFEEDE;}
	.st9{clip-path:url(#SVGID_2_);fill-rule:evenodd;clip-rule:evenodd;fill:#FFEDDE;}
	.st10{clip-path:url(#SVGID_2_);fill-rule:evenodd;clip-rule:evenodd;fill:#FFEDDD;}
	.st11{clip-path:url(#SVGID_2_);fill-rule:evenodd;clip-rule:evenodd;fill:#FFEDDC;}
	.st12{clip-path:url(#SVGID_2_);fill-rule:evenodd;clip-rule:evenodd;fill:#FFECDC;}
	.st13{clip-path:url(#SVGID_2_);fill-rule:evenodd;clip-rule:evenodd;fill:#FFECDA;}
	.st14{clip-path:url(#SVGID_2_);fill-rule:evenodd;clip-rule:evenodd;fill:#FFEBD9;}
	.st15{clip-path:url(#SVGID_2_);fill-rule:evenodd;clip-rule:evenodd;fill:#FFEAD7;}
	.st16{clip-path:url(#SVGID_2_);fill-rule:evenodd;clip-rule:evenodd;fill:#FFE9D6;}
	.st17{clip-path:url(#SVGID_2_);fill-rule:evenodd;clip-rule:evenodd;fill:#FFE8D5;}
	.st18{clip-path:url(#SVGID_2_);fill-rule:evenodd;clip-rule:evenodd;fill:#FFE8D4;}
	.st19{clip-path:url(#SVGID_2_);fill-rule:evenodd;clip-rule:evenodd;fill:#FFE7D3;}
	.st20{clip-path:url(#SVGID_2_);fill-rule:evenodd;clip-rule:evenodd;fill:#FFE7D2;}
	.st21{clip-path:url(#SVGID_2_);fill-rule:evenodd;clip-rule:evenodd;fill:#FFE7D1;}
	.st22{clip-path:url(#SVGID_2_);fill-rule:evenodd;clip-rule:evenodd;fill:#FFE6D0;}
	.st23{clip-path:url(#SVGID_2_);fill-rule:evenodd;clip-rule:evenodd;fill:#FEE6D0;}
	.st24{clip-path:url(#SVGID_2_);fill-rule:evenodd;clip-rule:evenodd;fill:#FFE6CF;}
	.st25{clip-path:url(#SVGID_2_);fill-rule:evenodd;clip-rule:evenodd;fill:#FEE5CE;}
	.st26{clip-path:url(#SVGID_2_);fill-rule:evenodd;clip-rule:evenodd;fill:#FEE5CD;}
	.st27{clip-path:url(#SVGID_2_);fill-rule:evenodd;clip-rule:evenodd;fill:#FEE4CC;}
	.st28{clip-path:url(#SVGID_2_);fill-rule:evenodd;clip-rule:evenodd;fill:#FEE3CB;}
	.st29{clip-path:url(#SVGID_2_);fill-rule:evenodd;clip-rule:evenodd;fill:#FEE2CA;}
	.st30{clip-path:url(#SVGID_2_);fill-rule:evenodd;clip-rule:evenodd;fill:#FEE2C9;}
	.st31{clip-path:url(#SVGID_2_);fill-rule:evenodd;clip-rule:evenodd;fill:#FEE2C8;}
	.st32{clip-path:url(#SVGID_2_);fill-rule:evenodd;clip-rule:evenodd;fill:#FEE1C8;}
	.st33{clip-path:url(#SVGID_2_);fill-rule:evenodd;clip-rule:evenodd;fill:#FEE1C7;}
	.st34{clip-path:url(#SVGID_2_);fill-rule:evenodd;clip-rule:evenodd;fill:#FEE1C6;}
	.st35{clip-path:url(#SVGID_2_);fill-rule:evenodd;clip-rule:evenodd;fill:#FEE0C5;}
	.st36{clip-path:url(#SVGID_2_);fill-rule:evenodd;clip-rule:evenodd;fill:#FEE0C4;}
	.st37{clip-path:url(#SVGID_2_);fill-rule:evenodd;clip-rule:evenodd;fill:#FEDFC4;}
	.st38{clip-path:url(#SVGID_2_);fill-rule:evenodd;clip-rule:evenodd;fill:#FEDFC3;}
	.st39{clip-path:url(#SVGID_2_);fill-rule:evenodd;clip-rule:evenodd;fill:#FEDEC2;}
	.st40{clip-path:url(#SVGID_2_);fill-rule:evenodd;clip-rule:evenodd;fill:#FEDEC1;}
	.st41{clip-path:url(#SVGID_2_);fill-rule:evenodd;clip-rule:evenodd;fill:#FEDDC0;}
	.st42{clip-path:url(#SVGID_2_);fill-rule:evenodd;clip-rule:evenodd;fill:#FEDDBF;}
	.st43{clip-path:url(#SVGID_2_);fill-rule:evenodd;clip-rule:evenodd;fill:#FEDCBE;}
	.st44{clip-path:url(#SVGID_2_);fill-rule:evenodd;clip-rule:evenodd;fill:#FEDCBD;}
	.st45{clip-path:url(#SVGID_2_);fill-rule:evenodd;clip-rule:evenodd;fill:#FEDBBC;}
	.st46{clip-path:url(#SVGID_2_);fill-rule:evenodd;clip-rule:evenodd;fill:#FEDBBB;}
	.st47{clip-path:url(#SVGID_2_);fill-rule:evenodd;clip-rule:evenodd;fill:#FEDABA;}
	.st48{clip-path:url(#SVGID_2_);fill-rule:evenodd;clip-rule:evenodd;fill:#FED9B9;}
	.st49{clip-path:url(#SVGID_2_);fill-rule:evenodd;clip-rule:evenodd;fill:#FED9B8;}
	.st50{clip-path:url(#SVGID_2_);fill-rule:evenodd;clip-rule:evenodd;fill:#FED8B7;}
	.st51{clip-path:url(#SVGID_2_);fill-rule:evenodd;clip-rule:evenodd;fill:#FED8B6;}
	.st52{clip-path:url(#SVGID_2_);fill-rule:evenodd;clip-rule:evenodd;fill:#FED7B5;}
	.st53{clip-path:url(#SVGID_2_);fill-rule:evenodd;clip-rule:evenodd;fill:#FED7B4;}
	.st54{clip-path:url(#SVGID_2_);fill-rule:evenodd;clip-rule:evenodd;fill:#FED6B3;}
	.st55{clip-path:url(#SVGID_2_);fill-rule:evenodd;clip-rule:evenodd;fill:#FED6B2;}
	.st56{clip-path:url(#SVGID_2_);fill-rule:evenodd;clip-rule:evenodd;fill:#FED5B2;}
	.st57{clip-path:url(#SVGID_2_);fill-rule:evenodd;clip-rule:evenodd;fill:#FED5B1;}
	.st58{clip-path:url(#SVGID_2_);fill-rule:evenodd;clip-rule:evenodd;fill:#FED4B0;}
	.st59{clip-path:url(#SVGID_2_);fill-rule:evenodd;clip-rule:evenodd;fill:#FED4AF;}
	.st60{clip-path:url(#SVGID_2_);fill-rule:evenodd;clip-rule:evenodd;fill:#FED3AE;}
	.st61{clip-path:url(#SVGID_2_);fill-rule:evenodd;clip-rule:evenodd;fill:#FED3AD;}
	.st62{clip-path:url(#SVGID_2_);fill-rule:evenodd;clip-rule:evenodd;fill:#FDD2AC;}
	.st63{clip-path:url(#SVGID_2_);fill-rule:evenodd;clip-rule:evenodd;fill:#FDD2AB;}
	.st64{clip-path:url(#SVGID_2_);fill-rule:evenodd;clip-rule:evenodd;fill:#FDD1AA;}
	.st65{clip-path:url(#SVGID_2_);fill-rule:evenodd;clip-rule:evenodd;fill:#FDD1A9;}
	.st66{clip-path:url(#SVGID_2_);fill-rule:evenodd;clip-rule:evenodd;fill:#FDD0A8;}
	.st67{clip-path:url(#SVGID_2_);fill-rule:evenodd;clip-rule:evenodd;fill:#FDCFA7;}
	.st68{clip-path:url(#SVGID_2_);fill-rule:evenodd;clip-rule:evenodd;fill:#FDCFA6;}
	.st69{clip-path:url(#SVGID_2_);fill-rule:evenodd;clip-rule:evenodd;fill:#FDCFA5;}
	.st70{clip-path:url(#SVGID_2_);fill-rule:evenodd;clip-rule:evenodd;fill:#FDCEA4;}
	.st71{clip-path:url(#SVGID_2_);fill-rule:evenodd;clip-rule:evenodd;fill:#FDCEA3;}
	.st72{clip-path:url(#SVGID_2_);fill-rule:evenodd;clip-rule:evenodd;fill:#FDCDA2;}
	.st73{clip-path:url(#SVGID_2_);fill-rule:evenodd;clip-rule:evenodd;fill:#FDCCA1;}
	.st74{clip-path:url(#SVGID_2_);fill-rule:evenodd;clip-rule:evenodd;fill:#FDCBA0;}
	.st75{clip-path:url(#SVGID_2_);fill-rule:evenodd;clip-rule:evenodd;fill:#FDCB9F;}
	.st76{clip-path:url(#SVGID_2_);fill-rule:evenodd;clip-rule:evenodd;fill:#FDCA9E;}
	.st77{clip-path:url(#SVGID_2_);fill-rule:evenodd;clip-rule:evenodd;fill:#FDCA9D;}
	.st78{clip-path:url(#SVGID_2_);fill-rule:evenodd;clip-rule:evenodd;fill:#FDCA9C;}
	.st79{clip-path:url(#SVGID_2_);fill-rule:evenodd;clip-rule:evenodd;fill:#FDC99B;}
	.st80{clip-path:url(#SVGID_2_);fill-rule:evenodd;clip-rule:evenodd;fill:#FDC89A;}
	.st81{clip-path:url(#SVGID_2_);fill-rule:evenodd;clip-rule:evenodd;fill:#FDC799;}
	.st82{clip-path:url(#SVGID_2_);fill-rule:evenodd;clip-rule:evenodd;fill:#FDC698;}
	.st83{clip-path:url(#SVGID_2_);fill-rule:evenodd;clip-rule:evenodd;fill:#FDC697;}
	.st84{clip-path:url(#SVGID_2_);fill-rule:evenodd;clip-rule:evenodd;fill:#FCC696;}
	.st85{clip-path:url(#SVGID_2_);fill-rule:evenodd;clip-rule:evenodd;fill:#FCC595;}
	.st86{clip-path:url(#SVGID_2_);fill-rule:evenodd;clip-rule:evenodd;fill:#FCC594;}
	.st87{clip-path:url(#SVGID_2_);fill-rule:evenodd;clip-rule:evenodd;fill:#FCC493;}
	.st88{clip-path:url(#SVGID_2_);fill-rule:evenodd;clip-rule:evenodd;fill:#FCC392;}
	.st89{clip-path:url(#SVGID_2_);fill-rule:evenodd;clip-rule:evenodd;fill:#FCC391;}
	.st90{clip-path:url(#SVGID_2_);fill-rule:evenodd;clip-rule:evenodd;fill:#FCC290;}
	.st91{clip-path:url(#SVGID_2_);fill-rule:evenodd;clip-rule:evenodd;fill:#FCC18F;}
	.st92{clip-path:url(#SVGID_2_);fill-rule:evenodd;clip-rule:evenodd;fill:#FCC18E;}
	.st93{clip-path:url(#SVGID_2_);fill-rule:evenodd;clip-rule:evenodd;fill:#FCC18D;}
	.st94{clip-path:url(#SVGID_2_);fill-rule:evenodd;clip-rule:evenodd;fill:#FCC08C;}
	.st95{clip-path:url(#SVGID_2_);fill-rule:evenodd;clip-rule:evenodd;fill:#FCBF8B;}
	.st96{clip-path:url(#SVGID_2_);fill-rule:evenodd;clip-rule:evenodd;fill:#FCBF8A;}
	.st97{clip-path:url(#SVGID_2_);fill-rule:evenodd;clip-rule:evenodd;fill:#FCBE89;}
	.st98{clip-path:url(#SVGID_2_);fill-rule:evenodd;clip-rule:evenodd;fill:#FCBD88;}
	.st99{clip-path:url(#SVGID_2_);fill-rule:evenodd;clip-rule:evenodd;fill:#FCBD87;}
	.st100{clip-path:url(#SVGID_2_);fill-rule:evenodd;clip-rule:evenodd;fill:#FCBD86;}
	.st101{clip-path:url(#SVGID_2_);fill-rule:evenodd;clip-rule:evenodd;fill:#FCBC85;}
	.st102{clip-path:url(#SVGID_2_);fill-rule:evenodd;clip-rule:evenodd;fill:#FCBB84;}
	.st103{clip-path:url(#SVGID_2_);fill-rule:evenodd;clip-rule:evenodd;fill:#FBBA83;}
	.st104{clip-path:url(#SVGID_2_);fill-rule:evenodd;clip-rule:evenodd;fill:#FBB981;}
	.st105{clip-path:url(#SVGID_2_);fill-rule:evenodd;clip-rule:evenodd;fill:#FBB980;}
	.st106{clip-path:url(#SVGID_2_);fill-rule:evenodd;clip-rule:evenodd;fill:#FBB87F;}
	.st107{clip-path:url(#SVGID_2_);fill-rule:evenodd;clip-rule:evenodd;fill:#FBB87E;}
	.st108{clip-path:url(#SVGID_2_);fill-rule:evenodd;clip-rule:evenodd;fill:#FBB77D;}
	.st109{clip-path:url(#SVGID_2_);fill-rule:evenodd;clip-rule:evenodd;fill:#FBB67C;}
	.st110{clip-path:url(#SVGID_2_);fill-rule:evenodd;clip-rule:evenodd;fill:#FBB57B;}
	.st111{clip-path:url(#SVGID_2_);fill-rule:evenodd;clip-rule:evenodd;fill:#FBB57A;}
	.st112{clip-path:url(#SVGID_2_);fill-rule:evenodd;clip-rule:evenodd;fill:#FBB479;}
	.st113{clip-path:url(#SVGID_2_);fill-rule:evenodd;clip-rule:evenodd;fill:#FBB478;}
	.st114{clip-path:url(#SVGID_2_);fill-rule:evenodd;clip-rule:evenodd;fill:#FBB377;}
	.st115{clip-path:url(#SVGID_2_);fill-rule:evenodd;clip-rule:evenodd;fill:#FBB376;}
	.st116{clip-path:url(#SVGID_2_);fill-rule:evenodd;clip-rule:evenodd;fill:#FBB276;}
	.st117{clip-path:url(#SVGID_2_);fill-rule:evenodd;clip-rule:evenodd;fill:#FBB175;}
	.st118{clip-path:url(#SVGID_2_);fill-rule:evenodd;clip-rule:evenodd;fill:#FBB174;}
	.st119{clip-path:url(#SVGID_2_);fill-rule:evenodd;clip-rule:evenodd;fill:#FAB073;}
	.st120{clip-path:url(#SVGID_2_);fill-rule:evenodd;clip-rule:evenodd;fill:#FAB072;}
	.st121{clip-path:url(#SVGID_2_);fill-rule:evenodd;clip-rule:evenodd;fill:#FAAF71;}
	.st122{clip-path:url(#SVGID_2_);fill-rule:evenodd;clip-rule:evenodd;fill:#FAAE70;}
	.st123{clip-path:url(#SVGID_2_);fill-rule:evenodd;clip-rule:evenodd;fill:#FAAE6F;}
	.st124{clip-path:url(#SVGID_2_);fill-rule:evenodd;clip-rule:evenodd;fill:#FAAD6E;}
	.st125{clip-path:url(#SVGID_2_);fill-rule:evenodd;clip-rule:evenodd;fill:#FAAC6D;}
	.st126{clip-path:url(#SVGID_2_);fill-rule:evenodd;clip-rule:evenodd;fill:#FAAC6C;}
	.st127{clip-path:url(#SVGID_2_);fill-rule:evenodd;clip-rule:evenodd;fill:#FAAC6B;}
	.st128{clip-path:url(#SVGID_2_);fill-rule:evenodd;clip-rule:evenodd;fill:#FAAB6A;}
	.st129{clip-path:url(#SVGID_2_);fill-rule:evenodd;clip-rule:evenodd;fill:#FAAA69;}
	.st130{clip-path:url(#SVGID_2_);fill-rule:evenodd;clip-rule:evenodd;fill:#FAAA68;}
	.st131{clip-path:url(#SVGID_2_);fill-rule:evenodd;clip-rule:evenodd;fill:#FAA967;}
	.st132{clip-path:url(#SVGID_2_);fill-rule:evenodd;clip-rule:evenodd;fill:#FAA966;}
	.st133{clip-path:url(#SVGID_2_);fill-rule:evenodd;clip-rule:evenodd;fill:#FAA865;}
	.st134{clip-path:url(#SVGID_2_);fill-rule:evenodd;clip-rule:evenodd;fill:#F9A764;}
	.st135{clip-path:url(#SVGID_2_);fill-rule:evenodd;clip-rule:evenodd;fill:#F9A763;}
	.st136{clip-path:url(#SVGID_2_);fill-rule:evenodd;clip-rule:evenodd;fill:#F9A663;}
	.st137{clip-path:url(#SVGID_2_);fill-rule:evenodd;clip-rule:evenodd;fill:#F9A662;}
	.st138{clip-path:url(#SVGID_2_);fill-rule:evenodd;clip-rule:evenodd;fill:#F9A560;}
	.st139{clip-path:url(#SVGID_2_);fill-rule:evenodd;clip-rule:evenodd;fill:#F9A55F;}
	.st140{clip-path:url(#SVGID_2_);fill-rule:evenodd;clip-rule:evenodd;fill:#F9A45E;}
	.st141{clip-path:url(#SVGID_2_);fill-rule:evenodd;clip-rule:evenodd;fill:#F9A35D;}
	.st142{clip-path:url(#SVGID_2_);fill-rule:evenodd;clip-rule:evenodd;fill:#F9A35C;}
	.st143{clip-path:url(#SVGID_2_);fill-rule:evenodd;clip-rule:evenodd;fill:#F9A25B;}
	.st144{clip-path:url(#SVGID_2_);fill-rule:evenodd;clip-rule:evenodd;fill:#F9A25A;}
	.st145{clip-path:url(#SVGID_2_);fill-rule:evenodd;clip-rule:evenodd;fill:#F9A159;}
	.st146{clip-path:url(#SVGID_2_);fill-rule:evenodd;clip-rule:evenodd;fill:#F9A057;}
	.st147{clip-path:url(#SVGID_2_);fill-rule:evenodd;clip-rule:evenodd;fill:#F9A056;}
	.st148{clip-path:url(#SVGID_2_);fill-rule:evenodd;clip-rule:evenodd;fill:#F99F55;}
	.st149{clip-path:url(#SVGID_2_);fill-rule:evenodd;clip-rule:evenodd;fill:#F99F54;}
	.st150{clip-path:url(#SVGID_2_);fill-rule:evenodd;clip-rule:evenodd;fill:#F89E53;}
	.st151{clip-path:url(#SVGID_2_);fill-rule:evenodd;clip-rule:evenodd;fill:#F89D52;}
	.st152{clip-path:url(#SVGID_2_);fill-rule:evenodd;clip-rule:evenodd;fill:#F89D51;}
	.st153{clip-path:url(#SVGID_2_);fill-rule:evenodd;clip-rule:evenodd;fill:#F89C4F;}
	.st154{clip-path:url(#SVGID_2_);fill-rule:evenodd;clip-rule:evenodd;fill:#F89C4E;}
	.st155{clip-path:url(#SVGID_2_);fill-rule:evenodd;clip-rule:evenodd;fill:#F89B4E;}
	.st156{clip-path:url(#SVGID_2_);fill-rule:evenodd;clip-rule:evenodd;fill:#F89B4D;}
	.st157{clip-path:url(#SVGID_2_);fill-rule:evenodd;clip-rule:evenodd;fill:#F89A4C;}
	.st158{clip-path:url(#SVGID_2_);fill-rule:evenodd;clip-rule:evenodd;fill:#F8994B;}
	.st159{clip-path:url(#SVGID_2_);fill-rule:evenodd;clip-rule:evenodd;fill:#F8994A;}
	.st160{clip-path:url(#SVGID_2_);fill-rule:evenodd;clip-rule:evenodd;fill:#F89848;}
	.st161{clip-path:url(#SVGID_2_);fill-rule:evenodd;clip-rule:evenodd;fill:#F89847;}
	.st162{clip-path:url(#SVGID_2_);fill-rule:evenodd;clip-rule:evenodd;fill:#F89746;}
	.st163{clip-path:url(#SVGID_2_);fill-rule:evenodd;clip-rule:evenodd;fill:#F89645;}
	.st164{clip-path:url(#SVGID_2_);fill-rule:evenodd;clip-rule:evenodd;fill:#F89644;}
	.st165{clip-path:url(#SVGID_2_);fill-rule:evenodd;clip-rule:evenodd;fill:#F79543;}
	.st166{clip-path:url(#SVGID_2_);fill-rule:evenodd;clip-rule:evenodd;fill:#F79542;}
	.st167{clip-path:url(#SVGID_2_);fill-rule:evenodd;clip-rule:evenodd;fill:#F79541;}
	.st168{clip-path:url(#SVGID_2_);fill-rule:evenodd;clip-rule:evenodd;fill:#F79440;}
	.st169{clip-path:url(#SVGID_2_);fill-rule:evenodd;clip-rule:evenodd;fill:#F7933F;}
	.st170{clip-path:url(#SVGID_2_);fill-rule:evenodd;clip-rule:evenodd;fill:#F7933E;}
	.st171{clip-path:url(#SVGID_2_);fill-rule:evenodd;clip-rule:evenodd;fill:#F7933D;}
	.st172{clip-path:url(#SVGID_2_);fill-rule:evenodd;clip-rule:evenodd;fill:#F7923C;}
	.st173{clip-path:url(#SVGID_2_);fill-rule:evenodd;clip-rule:evenodd;fill:#F7913B;}
	.st174{clip-path:url(#SVGID_2_);fill-rule:evenodd;clip-rule:evenodd;fill:#F7913A;}
	.st175{clip-path:url(#SVGID_2_);fill-rule:evenodd;clip-rule:evenodd;fill:#F79039;}
	.st176{clip-path:url(#SVGID_2_);fill-rule:evenodd;clip-rule:evenodd;fill:#F79038;}
	.st177{clip-path:url(#SVGID_2_);fill-rule:evenodd;clip-rule:evenodd;fill:#F79037;}
	.st178{clip-path:url(#SVGID_2_);fill-rule:evenodd;clip-rule:evenodd;fill:#F78F36;}
	.st179{clip-path:url(#SVGID_2_);fill-rule:evenodd;clip-rule:evenodd;fill:#F78E35;}
	.st180{clip-path:url(#SVGID_2_);fill-rule:evenodd;clip-rule:evenodd;fill:#F78E34;}
	.st181{clip-path:url(#SVGID_2_);fill-rule:evenodd;clip-rule:evenodd;fill:#F78E33;}
	.st182{clip-path:url(#SVGID_2_);fill-rule:evenodd;clip-rule:evenodd;fill:#F78D33;}
	.st183{clip-path:url(#SVGID_2_);fill-rule:evenodd;clip-rule:evenodd;fill:#F68C31;}
	.st184{clip-path:url(#SVGID_2_);fill-rule:evenodd;clip-rule:evenodd;fill:#F68C30;}
	.st185{clip-path:url(#SVGID_2_);fill-rule:evenodd;clip-rule:evenodd;fill:#F68B2F;}
	.st186{clip-path:url(#SVGID_2_);fill-rule:evenodd;clip-rule:evenodd;fill:#F68B2E;}
	.st187{clip-path:url(#SVGID_2_);fill-rule:evenodd;clip-rule:evenodd;fill:#F68A2E;}
	.st188{clip-path:url(#SVGID_2_);fill-rule:evenodd;clip-rule:evenodd;fill:#F68A2C;}
	.st189{clip-path:url(#SVGID_2_);fill-rule:evenodd;clip-rule:evenodd;fill:#F6892B;}
	.st190{clip-path:url(#SVGID_2_);fill-rule:evenodd;clip-rule:evenodd;fill:#F6892A;}
	.st191{clip-path:url(#SVGID_2_);fill-rule:evenodd;clip-rule:evenodd;fill:#F68929;}
	.st192{clip-path:url(#SVGID_2_);fill-rule:evenodd;clip-rule:evenodd;fill:#F68829;}
	.st193{clip-path:url(#SVGID_2_);fill-rule:evenodd;clip-rule:evenodd;fill:#F68727;}
	.st194{clip-path:url(#SVGID_2_);fill-rule:evenodd;clip-rule:evenodd;fill:#F68626;}
	.st195{clip-path:url(#SVGID_2_);fill-rule:evenodd;clip-rule:evenodd;fill:#F68625;}
	.st196{clip-path:url(#SVGID_2_);fill-rule:evenodd;clip-rule:evenodd;fill:#F68524;}
	.st197{clip-path:url(#SVGID_2_);fill-rule:evenodd;clip-rule:evenodd;fill:#F58423;}
	.st198{clip-path:url(#SVGID_2_);fill-rule:evenodd;clip-rule:evenodd;fill:#F58422;}
	.st199{clip-path:url(#SVGID_2_);fill-rule:evenodd;clip-rule:evenodd;fill:#F58321;}
	.st200{fill:#001722;}
</style>
<g>
	<polyline class="st0" points="1.35,1.38 371.8,1.35 371.8,237.31 1.36,237.32 1.35,1.38 	"/>
	<path class="st1" d="M370.44,2.7c0,2.65,0.01,230.6,0.01,233.26c-2.68,0-365.05,0.01-367.75,0.01C2.71,233.31,2.7,5.38,2.7,2.72
		C5.38,2.72,367.76,2.7,370.44,2.7L370.44,2.7z M371.8,0L0,0.02l0.01,238.65l373.14-0.01L373.14,0H371.8"/>
	<path class="st2" d="M370.43,132.59c0,0-101.21,71.41-286.58,103.39h286.58V132.59"/>
	<g>
		<defs>
			<path id="SVGID_1_" d="M195.42,60.58c-15.21,0-27.54,11.88-27.54,26.54c0,15.59,11.8,27.24,27.54,27.24
				c15.35,0,27.47-11.81,27.47-26.93C222.89,72.39,210.85,60.58,195.42,60.58"/>
		</defs>
		<clipPath id="SVGID_2_">
			<use xlink:href="#SVGID_1_"  style="overflow:visible;"/>
		</clipPath>
		<polyline class="st3" points="195.48,87.35 195.48,87.35 195.48,87.35 195.48,87.35 195.48,87.35 		"/>
		<path class="st4" d="M195.48,87.35L195.48,87.35L195.48,87.35L195.48,87.35L195.48,87.35l-0.2,0.12c0,0.06,0.05,0.11,0.11,0.11
			s0.11-0.05,0.11-0.11c0-0.06-0.05-0.11-0.11-0.11s-0.11,0.05-0.11,0.11"/>
		<path class="st4" d="M195.25,87.47c0-0.06,0.05-0.11,0.11-0.11c0.06,0,0.11,0.05,0.11,0.11c0,0.06-0.05,0.11-0.11,0.11
			C195.3,87.58,195.25,87.53,195.25,87.47l-0.08,0c0,0.12,0.1,0.21,0.21,0.21s0.21-0.1,0.21-0.21c0-0.12-0.1-0.21-0.21-0.21
			s-0.21,0.1-0.21,0.21"/>
		<path class="st4" d="M195.15,87.47c0-0.12,0.1-0.21,0.21-0.21c0.12,0,0.21,0.1,0.21,0.21c0,0.12-0.1,0.21-0.21,0.21
			C195.24,87.69,195.15,87.59,195.15,87.47l-0.08,0c0,0.18,0.14,0.32,0.32,0.32s0.32-0.14,0.32-0.32c0-0.18-0.14-0.32-0.32-0.32
			s-0.32,0.14-0.32,0.32"/>
		<path class="st4" d="M195.04,87.47c0-0.18,0.14-0.32,0.32-0.32c0.18,0,0.32,0.14,0.32,0.32c0,0.18-0.14,0.32-0.32,0.32
			C195.18,87.79,195.04,87.65,195.04,87.47l-0.08,0c0,0.23,0.19,0.42,0.42,0.42s0.42-0.19,0.42-0.42c0-0.23-0.19-0.42-0.42-0.42
			s-0.42,0.19-0.42,0.42"/>
		<path class="st4" d="M194.94,87.47c0-0.23,0.19-0.42,0.42-0.42c0.23,0,0.42,0.19,0.42,0.42c0,0.23-0.19,0.42-0.42,0.42
			C195.13,87.9,194.94,87.71,194.94,87.47l-0.08,0c0,0.29,0.24,0.53,0.53,0.53c0.29,0,0.53-0.24,0.53-0.53
			c0-0.29-0.24-0.53-0.53-0.53c-0.29,0-0.53,0.24-0.53,0.53"/>
		<path class="st5" d="M194.83,87.47c0-0.29,0.24-0.53,0.53-0.53c0.29,0,0.53,0.24,0.53,0.53c0,0.29-0.24,0.53-0.53,0.53
			C195.07,88,194.83,87.77,194.83,87.47l-0.08,0c0,0.35,0.29,0.64,0.64,0.64s0.64-0.29,0.64-0.64s-0.29-0.64-0.64-0.64
			s-0.64,0.29-0.64,0.64"/>
		<path class="st5" d="M194.72,87.47c0-0.35,0.29-0.64,0.64-0.64c0.35,0,0.64,0.29,0.64,0.64c0,0.35-0.29,0.64-0.64,0.64
			C195.01,88.11,194.72,87.83,194.72,87.47l-0.08,0c0,0.41,0.33,0.74,0.74,0.74s0.74-0.33,0.74-0.74s-0.33-0.74-0.74-0.74
			s-0.74,0.33-0.74,0.74"/>
		<path class="st6" d="M194.62,87.47c0-0.41,0.33-0.74,0.74-0.74c0.41,0,0.74,0.33,0.74,0.74s-0.33,0.74-0.74,0.74
			C194.95,88.22,194.62,87.88,194.62,87.47l-0.08,0c0,0.47,0.38,0.85,0.85,0.85c0.47,0,0.85-0.38,0.85-0.85
			c0-0.47-0.38-0.85-0.85-0.85c-0.47,0-0.85,0.38-0.85,0.85"/>
		<path class="st7" d="M194.51,87.47c0-0.47,0.38-0.85,0.85-0.85c0.47,0,0.85,0.38,0.85,0.85c0,0.47-0.38,0.85-0.85,0.85
			C194.89,88.32,194.51,87.94,194.51,87.47l-0.08,0c0,0.53,0.43,0.96,0.96,0.96c0.53,0,0.96-0.43,0.96-0.96
			c0-0.53-0.43-0.96-0.96-0.96c-0.53,0-0.96,0.43-0.96,0.96"/>
		<path class="st7" d="M194.52,87.47c0-0.53,0.43-0.96,0.96-0.96s0.96,0.43,0.96,0.96c0,0.53-0.43,0.96-0.96,0.96
			S194.52,88,194.52,87.47l-0.2,0c0,0.59,0.48,1.06,1.06,1.06s1.06-0.48,1.06-1.06c0-0.59-0.48-1.06-1.06-1.06s-1.06,0.48-1.06,1.06
			"/>
		<path class="st7" d="M194.3,87.47c0-0.59,0.48-1.06,1.06-1.06c0.59,0,1.06,0.48,1.06,1.06c0,0.59-0.48,1.06-1.06,1.06
			C194.77,88.54,194.3,88.06,194.3,87.47l-0.08,0c0,0.65,0.52,1.17,1.17,1.17s1.17-0.52,1.17-1.17c0-0.65-0.52-1.17-1.17-1.17
			s-1.17,0.52-1.17,1.17"/>
		<path class="st8" d="M194.19,87.47c0-0.65,0.52-1.17,1.17-1.17c0.65,0,1.17,0.52,1.17,1.17c0,0.65-0.52,1.17-1.17,1.17
			C194.71,88.64,194.19,88.12,194.19,87.47l-0.08,0c0,0.7,0.57,1.27,1.27,1.27c0.7,0,1.27-0.57,1.27-1.27c0-0.7-0.57-1.27-1.27-1.27
			c-0.7,0-1.27,0.57-1.27,1.27"/>
		<path class="st9" d="M194.09,87.47c0-0.7,0.57-1.27,1.27-1.27c0.7,0,1.27,0.57,1.27,1.27c0,0.7-0.57,1.27-1.27,1.27
			C194.66,88.75,194.09,88.18,194.09,87.47l-0.08,0c0,0.76,0.62,1.38,1.38,1.38s1.38-0.62,1.38-1.38s-0.62-1.38-1.38-1.38
			S194,86.71,194,87.47"/>
		<path class="st9" d="M193.98,87.47c0-0.76,0.62-1.38,1.38-1.38c0.76,0,1.38,0.62,1.38,1.38c0,0.76-0.62,1.38-1.38,1.38
			C194.6,88.85,193.98,88.24,193.98,87.47l-0.08,0c0,0.82,0.67,1.49,1.49,1.49s1.49-0.67,1.49-1.49s-0.67-1.49-1.49-1.49
			s-1.49,0.67-1.49,1.49"/>
		<path class="st10" d="M193.87,87.47c0-0.82,0.67-1.49,1.49-1.49c0.82,0,1.49,0.67,1.49,1.49s-0.67,1.49-1.49,1.49
			C194.54,88.96,193.87,88.29,193.87,87.47l-0.08,0c0,0.88,0.71,1.59,1.59,1.59s1.59-0.71,1.59-1.59c0-0.88-0.71-1.59-1.59-1.59
			s-1.59,0.71-1.59,1.59"/>
		<path class="st10" d="M193.77,87.47c0-0.88,0.71-1.59,1.59-1.59c0.88,0,1.59,0.71,1.59,1.59c0,0.88-0.71,1.59-1.59,1.59
			C194.48,89.07,193.77,88.35,193.77,87.47l-0.08,0c0,0.94,0.76,1.7,1.7,1.7c0.94,0,1.7-0.76,1.7-1.7c0-0.94-0.76-1.7-1.7-1.7
			c-0.94,0-1.7,0.76-1.7,1.7"/>
		<path class="st11" d="M193.78,87.47c0-0.94,0.76-1.7,1.7-1.7s1.7,0.76,1.7,1.7c0,0.94-0.76,1.7-1.7,1.7S193.78,88.41,193.78,87.47
			l-0.2,0c0,1,0.81,1.81,1.81,1.81s1.81-0.81,1.81-1.81c0-1-0.81-1.81-1.81-1.81s-1.81,0.81-1.81,1.81"/>
		<path class="st11" d="M193.55,87.47c0-1,0.81-1.81,1.81-1.81s1.81,0.81,1.81,1.81c0,1-0.81,1.81-1.81,1.81
			S193.55,88.47,193.55,87.47l-0.08,0c0,1.06,0.86,1.91,1.91,1.91s1.91-0.86,1.91-1.91s-0.86-1.91-1.91-1.91s-1.91,0.86-1.91,1.91"
			/>
		<path class="st12" d="M193.57,87.47c0-1.06,0.86-1.91,1.91-1.91s1.91,0.86,1.91,1.91c0,1.06-0.86,1.91-1.91,1.91
			S193.57,88.53,193.57,87.47l-0.2,0c0,1.11,0.9,2.02,2.02,2.02s2.02-0.9,2.02-2.02s-0.9-2.02-2.02-2.02s-2.02,0.9-2.02,2.02"/>
		<path class="st12" d="M193.34,87.47c0-1.11,0.9-2.02,2.02-2.02c1.11,0,2.02,0.9,2.02,2.02c0,1.11-0.9,2.02-2.02,2.02
			C194.25,89.49,193.34,88.59,193.34,87.47l-0.08,0c0,1.17,0.95,2.12,2.12,2.12s2.12-0.95,2.12-2.12s-0.95-2.12-2.12-2.12
			s-2.12,0.95-2.12,2.12"/>
		<path class="st13" d="M193.24,87.47c0-1.17,0.95-2.12,2.12-2.12c1.17,0,2.12,0.95,2.12,2.12c0,1.17-0.95,2.12-2.12,2.12
			C194.19,89.6,193.24,88.65,193.24,87.47l-0.08,0c0,1.23,1,2.23,2.23,2.23s2.23-1,2.23-2.23s-1-2.23-2.23-2.23s-2.23,1-2.23,2.23"
			/>
		<path class="st13" d="M193.13,87.47c0-1.23,1-2.23,2.23-2.23s2.23,1,2.23,2.23s-1,2.23-2.23,2.23S193.13,88.7,193.13,87.47
			l-0.08,0c0,1.29,1.05,2.34,2.34,2.34s2.34-1.05,2.34-2.34c0-1.29-1.05-2.34-2.34-2.34s-2.34,1.05-2.34,2.34"/>
		<path class="st13" d="M193.02,87.47c0-1.29,1.05-2.34,2.34-2.34c1.29,0,2.34,1.05,2.34,2.34s-1.05,2.34-2.34,2.34
			C194.07,89.81,193.02,88.76,193.02,87.47l-0.08,0c0,1.35,1.09,2.44,2.44,2.44s2.44-1.09,2.44-2.44c0-1.35-1.09-2.44-2.44-2.44
			s-2.44,1.09-2.44,2.44"/>
		<path class="st14" d="M192.92,87.47c0-1.35,1.09-2.44,2.44-2.44c1.35,0,2.44,1.09,2.44,2.44c0,1.35-1.09,2.44-2.44,2.44
			C194.01,89.92,192.92,88.82,192.92,87.47l-0.08,0c0,1.41,1.14,2.55,2.55,2.55s2.55-1.14,2.55-2.55s-1.14-2.55-2.55-2.55
			s-2.55,1.14-2.55,2.55"/>
		<path class="st14" d="M192.81,87.47c0-1.41,1.14-2.55,2.55-2.55c1.41,0,2.55,1.14,2.55,2.55c0,1.41-1.14,2.55-2.55,2.55
			C193.95,90.02,192.81,88.88,192.81,87.47l-0.08,0c0,1.47,1.19,2.66,2.66,2.66s2.66-1.19,2.66-2.66s-1.19-2.66-2.66-2.66
			s-2.66,1.19-2.66,2.66"/>
		<path class="st14" d="M192.82,87.47c0-1.47,1.19-2.66,2.66-2.66s2.66,1.19,2.66,2.66c0,1.47-1.19,2.66-2.66,2.66
			S192.82,88.94,192.82,87.47l-0.2,0c0,1.52,1.24,2.76,2.76,2.76s2.76-1.24,2.76-2.76c0-1.52-1.24-2.76-2.76-2.76
			s-2.76,1.24-2.76,2.76"/>
		<path class="st15" d="M192.6,87.47c0-1.52,1.24-2.76,2.76-2.76c1.52,0,2.76,1.24,2.76,2.76c0,1.52-1.24,2.76-2.76,2.76
			C193.84,90.24,192.6,89,192.6,87.47l-0.08,0c0,1.58,1.29,2.87,2.87,2.87s2.87-1.29,2.87-2.87s-1.29-2.87-2.87-2.87
			s-2.87,1.29-2.87,2.87"/>
		<path class="st15" d="M192.61,87.47c0-1.58,1.29-2.87,2.87-2.87s2.87,1.29,2.87,2.87s-1.29,2.87-2.87,2.87
			S192.61,89.06,192.61,87.47l-0.2,0c0,1.64,1.33,2.97,2.97,2.97s2.97-1.33,2.97-2.97s-1.33-2.97-2.97-2.97s-2.97,1.33-2.97,2.97"/>
		<path class="st15" d="M192.39,87.47c0-1.64,1.33-2.97,2.97-2.97c1.64,0,2.97,1.33,2.97,2.97s-1.33,2.97-2.97,2.97
			C193.72,90.45,192.39,89.12,192.39,87.47l-0.08,0c0,1.7,1.38,3.08,3.08,3.08c1.7,0,3.08-1.38,3.08-3.08c0-1.7-1.38-3.08-3.08-3.08
			c-1.7,0-3.08,1.38-3.08,3.08"/>
		<path class="st16" d="M192.28,87.47c0-1.7,1.38-3.08,3.08-3.08c1.7,0,3.08,1.38,3.08,3.08c0,1.7-1.38,3.08-3.08,3.08
			C193.66,90.55,192.28,89.17,192.28,87.47l-0.08,0c0,1.76,1.43,3.19,3.19,3.19s3.19-1.43,3.19-3.19s-1.43-3.19-3.19-3.19
			s-3.19,1.43-3.19,3.19"/>
		<path class="st16" d="M192.17,87.47c0-1.76,1.43-3.19,3.19-3.19c1.76,0,3.19,1.43,3.19,3.19c0,1.76-1.43,3.19-3.19,3.19
			C193.6,90.66,192.17,89.23,192.17,87.47l-0.08,0c0,1.82,1.48,3.29,3.29,3.29s3.29-1.48,3.29-3.29s-1.48-3.29-3.29-3.29
			s-3.29,1.48-3.29,3.29"/>
		<path class="st16" d="M192.07,87.47c0-1.82,1.48-3.29,3.29-3.29c1.82,0,3.29,1.48,3.29,3.29c0,1.82-1.48,3.29-3.29,3.29
			C193.54,90.77,192.07,89.29,192.07,87.47l-0.08,0c0,1.88,1.52,3.4,3.4,3.4c1.88,0,3.4-1.52,3.4-3.4c0-1.88-1.52-3.4-3.4-3.4
			c-1.88,0-3.4,1.52-3.4,3.4"/>
		<path class="st17" d="M191.96,87.47c0-1.88,1.52-3.4,3.4-3.4c1.88,0,3.4,1.52,3.4,3.4c0,1.88-1.52,3.4-3.4,3.4
			C193.48,90.87,191.96,89.35,191.96,87.47l-0.08,0c0,1.94,1.57,3.51,3.51,3.51c1.94,0,3.51-1.57,3.51-3.51
			c0-1.94-1.57-3.51-3.51-3.51c-1.94,0-3.51,1.57-3.51,3.51"/>
		<path class="st18" d="M191.85,87.47c0-1.94,1.57-3.51,3.51-3.51c1.94,0,3.51,1.57,3.51,3.51s-1.57,3.51-3.51,3.51
			C193.42,90.98,191.85,89.41,191.85,87.47l-0.08,0c0,1.99,1.62,3.61,3.61,3.61s3.61-1.62,3.61-3.61s-1.62-3.61-3.61-3.61
			s-3.61,1.62-3.61,3.61"/>
		<path class="st18" d="M191.87,87.47c0-1.99,1.62-3.61,3.61-3.61s3.61,1.62,3.61,3.61c0,1.99-1.62,3.61-3.61,3.61
			S191.87,89.47,191.87,87.47l-0.2,0c0,2.05,1.67,3.72,3.72,3.72s3.72-1.67,3.72-3.72c0-2.05-1.67-3.72-3.72-3.72
			s-3.72,1.67-3.72,3.72"/>
		<path class="st19" d="M191.64,87.47c0-2.05,1.67-3.72,3.72-3.72c2.05,0,3.72,1.67,3.72,3.72c0,2.05-1.67,3.72-3.72,3.72
			C193.31,91.19,191.64,89.53,191.64,87.47l-0.08,0c0,2.11,1.71,3.82,3.82,3.82s3.82-1.71,3.82-3.82s-1.71-3.82-3.82-3.82
			s-3.82,1.71-3.82,3.82"/>
		<path class="st19" d="M191.66,87.47c0-2.11,1.71-3.82,3.82-3.82s3.82,1.71,3.82,3.82c0,2.11-1.71,3.82-3.82,3.82
			S191.66,89.58,191.66,87.47l-0.2,0c0,2.17,1.76,3.93,3.93,3.93s3.93-1.76,3.93-3.93s-1.76-3.93-3.93-3.93s-3.93,1.76-3.93,3.93"/>
		<path class="st20" d="M191.43,87.47c0-2.17,1.76-3.93,3.93-3.93c2.17,0,3.93,1.76,3.93,3.93c0,2.17-1.76,3.93-3.93,3.93
			C193.19,91.4,191.43,89.64,191.43,87.47l-0.08,0c0,2.23,1.81,4.04,4.04,4.04s4.04-1.81,4.04-4.04c0-2.23-1.81-4.04-4.04-4.04
			s-4.04,1.81-4.04,4.04"/>
		<path class="st20" d="M191.32,87.47c0-2.23,1.81-4.04,4.04-4.04c2.23,0,4.04,1.81,4.04,4.04c0,2.23-1.81,4.04-4.04,4.04
			C193.13,91.51,191.32,89.7,191.32,87.47l-0.08,0c0,2.29,1.86,4.14,4.14,4.14s4.14-1.86,4.14-4.14c0-2.29-1.86-4.14-4.14-4.14
			s-4.14,1.86-4.14,4.14"/>
		<path class="st21" d="M191.22,87.47c0-2.29,1.86-4.14,4.14-4.14c2.29,0,4.14,1.86,4.14,4.14s-1.86,4.14-4.14,4.14
			C193.07,91.62,191.22,89.76,191.22,87.47l-0.08,0c0,2.35,1.9,4.25,4.25,4.25s4.25-1.9,4.25-4.25s-1.9-4.25-4.25-4.25
			s-4.25,1.9-4.25,4.25"/>
		<path class="st22" d="M191.11,87.47c0-2.35,1.9-4.25,4.25-4.25c2.35,0,4.25,1.9,4.25,4.25s-1.9,4.25-4.25,4.25
			C193.01,91.72,191.11,89.82,191.11,87.47l-0.08,0c0,2.4,1.95,4.36,4.36,4.36s4.36-1.95,4.36-4.36c0-2.4-1.95-4.36-4.36-4.36
			s-4.36,1.95-4.36,4.36"/>
		<path class="st23" d="M191,87.47c0-2.4,1.95-4.36,4.36-4.36s4.36,1.95,4.36,4.36s-1.95,4.36-4.36,4.36S191,89.88,191,87.47
			l-0.08,0c0,2.46,2,4.46,4.46,4.46s4.46-2,4.46-4.46s-2-4.46-4.46-4.46s-4.46,2-4.46,4.46"/>
		<path class="st24" d="M190.9,87.47c0-2.46,2-4.46,4.46-4.46c2.46,0,4.46,2,4.46,4.46c0,2.46-2,4.46-4.46,4.46
			C192.9,91.94,190.9,89.94,190.9,87.47l-0.08,0c0,2.52,2.05,4.57,4.57,4.57s4.57-2.05,4.57-4.57c0-2.52-2.05-4.57-4.57-4.57
			s-4.57,2.05-4.57,4.57"/>
		<path class="st25" d="M190.91,87.47c0-2.52,2.05-4.57,4.57-4.57s4.57,2.05,4.57,4.57c0,2.52-2.05,4.57-4.57,4.57
			S190.91,90,190.91,87.47l-0.2,0c0,2.58,2.09,4.67,4.67,4.67s4.67-2.09,4.67-4.67c0-2.58-2.09-4.67-4.67-4.67s-4.67,2.09-4.67,4.67
			"/>
		<path class="st25" d="M190.69,87.47c0-2.58,2.09-4.67,4.67-4.67c2.58,0,4.67,2.09,4.67,4.67c0,2.58-2.09,4.67-4.67,4.67
			C192.78,92.15,190.69,90.05,190.69,87.47l-0.08,0c0,2.64,2.14,4.78,4.78,4.78s4.78-2.14,4.78-4.78c0-2.64-2.14-4.78-4.78-4.78
			s-4.78,2.14-4.78,4.78"/>
		<path class="st26" d="M190.7,87.47c0-2.64,2.14-4.78,4.78-4.78s4.78,2.14,4.78,4.78s-2.14,4.78-4.78,4.78S190.7,90.11,190.7,87.47
			l-0.2,0c0,2.7,2.19,4.89,4.89,4.89c2.7,0,4.89-2.19,4.89-4.89c0-2.7-2.19-4.89-4.89-4.89c-2.7,0-4.89,2.19-4.89,4.89"/>
		<path class="st27" d="M190.47,87.47c0-2.7,2.19-4.89,4.89-4.89c2.7,0,4.89,2.19,4.89,4.89c0,2.7-2.19,4.89-4.89,4.89
			C192.66,92.36,190.47,90.17,190.47,87.47l-0.08,0c0,2.76,2.24,4.99,4.99,4.99s4.99-2.24,4.99-4.99c0-2.76-2.24-4.99-4.99-4.99
			s-4.99,2.24-4.99,4.99"/>
		<path class="st27" d="M190.37,87.47c0-2.76,2.24-4.99,4.99-4.99c2.76,0,4.99,2.24,4.99,4.99c0,2.76-2.24,4.99-4.99,4.99
			C192.6,92.47,190.37,90.23,190.37,87.47l-0.08,0c0,2.82,2.28,5.1,5.1,5.1s5.1-2.28,5.1-5.1c0-2.82-2.28-5.1-5.1-5.1
			s-5.1,2.28-5.1,5.1"/>
		<path class="st28" d="M190.26,87.47c0-2.82,2.28-5.1,5.1-5.1c2.82,0,5.1,2.28,5.1,5.1s-2.28,5.1-5.1,5.1
			C192.54,92.57,190.26,90.29,190.26,87.47l-0.08,0c0,2.87,2.33,5.21,5.21,5.21c2.87,0,5.21-2.33,5.21-5.21
			c0-2.87-2.33-5.21-5.21-5.21c-2.87,0-5.21,2.33-5.21,5.21"/>
		<path class="st28" d="M190.15,87.47c0-2.87,2.33-5.21,5.21-5.21c2.87,0,5.21,2.33,5.21,5.21c0,2.87-2.33,5.21-5.21,5.21
			C192.49,92.68,190.15,90.35,190.15,87.47l-0.08,0c0,2.93,2.38,5.31,5.31,5.31c2.93,0,5.31-2.38,5.31-5.31
			c0-2.93-2.38-5.31-5.31-5.31c-2.93,0-5.31,2.38-5.31,5.31"/>
		<path class="st28" d="M190.05,87.47c0-2.93,2.38-5.31,5.31-5.31c2.93,0,5.31,2.38,5.31,5.31c0,2.93-2.38,5.31-5.31,5.31
			C192.43,92.79,190.05,90.41,190.05,87.47l-0.08,0c0,2.99,2.43,5.42,5.42,5.42s5.42-2.43,5.42-5.42c0-2.99-2.43-5.42-5.42-5.42
			s-5.42,2.43-5.42,5.42"/>
		<path class="st29" d="M189.94,87.47c0-2.99,2.43-5.42,5.42-5.42c2.99,0,5.42,2.43,5.42,5.42s-2.43,5.42-5.42,5.42
			C192.37,92.89,189.94,90.46,189.94,87.47l-0.08,0c0,3.05,2.48,5.52,5.52,5.52s5.52-2.48,5.52-5.52c0-3.05-2.48-5.52-5.52-5.52
			s-5.52,2.48-5.52,5.52"/>
		<path class="st30" d="M189.96,87.47c0-3.05,2.48-5.52,5.52-5.52s5.52,2.48,5.52,5.52c0,3.05-2.48,5.52-5.52,5.52
			S189.96,90.52,189.96,87.47l-0.2,0c0,3.11,2.52,5.63,5.63,5.63c3.11,0,5.63-2.52,5.63-5.63c0-3.11-2.52-5.63-5.63-5.63
			c-3.11,0-5.63,2.52-5.63,5.63"/>
		<path class="st31" d="M189.73,87.47c0-3.11,2.52-5.63,5.63-5.63c3.11,0,5.63,2.52,5.63,5.63c0,3.11-2.52,5.63-5.63,5.63
			C192.25,93.1,189.73,90.58,189.73,87.47l-0.08,0c0,3.17,2.57,5.74,5.74,5.74s5.74-2.57,5.74-5.74c0-3.17-2.57-5.74-5.74-5.74
			s-5.74,2.57-5.74,5.74"/>
		<path class="st32" d="M189.74,87.47c0-3.17,2.57-5.74,5.74-5.74s5.74,2.57,5.74,5.74c0,3.17-2.57,5.74-5.74,5.74
			S189.74,90.64,189.74,87.47l-0.2,0c0,3.23,2.62,5.84,5.84,5.84s5.84-2.62,5.84-5.84s-2.62-5.84-5.84-5.84s-5.84,2.62-5.84,5.84"/>
		<path class="st33" d="M189.52,87.47c0-3.23,2.62-5.84,5.84-5.84c3.23,0,5.84,2.62,5.84,5.84c0,3.23-2.62,5.84-5.84,5.84
			C192.13,93.32,189.52,90.7,189.52,87.47l-0.08,0c0,3.28,2.67,5.95,5.95,5.95s5.95-2.67,5.95-5.95c0-3.28-2.67-5.95-5.95-5.95
			s-5.95,2.67-5.95,5.95"/>
		<path class="st33" d="M189.41,87.47c0-3.28,2.67-5.95,5.95-5.95c3.28,0,5.95,2.67,5.95,5.95c0,3.28-2.67,5.95-5.95,5.95
			C192.08,93.42,189.41,90.76,189.41,87.47l-0.08,0c0,3.34,2.71,6.06,6.06,6.06s6.06-2.71,6.06-6.06c0-3.34-2.71-6.06-6.06-6.06
			s-6.06,2.71-6.06,6.06"/>
		<path class="st34" d="M189.3,87.47c0-3.34,2.71-6.06,6.06-6.06c3.34,0,6.06,2.71,6.06,6.06s-2.71,6.06-6.06,6.06
			C192.02,93.53,189.3,90.82,189.3,87.47l-0.08,0c0,3.4,2.76,6.16,6.16,6.16s6.16-2.76,6.16-6.16c0-3.4-2.76-6.16-6.16-6.16
			s-6.16,2.76-6.16,6.16"/>
		<path class="st35" d="M189.2,87.47c0-3.4,2.76-6.16,6.16-6.16s6.16,2.76,6.16,6.16c0,3.4-2.76,6.16-6.16,6.16
			S189.2,90.87,189.2,87.47l-0.08,0c0,3.46,2.81,6.27,6.27,6.27s6.27-2.81,6.27-6.27c0-3.46-2.81-6.27-6.27-6.27
			s-6.27,2.81-6.27,6.27"/>
		<path class="st36" d="M189.09,87.47c0-3.46,2.81-6.27,6.27-6.27c3.46,0,6.27,2.81,6.27,6.27c0,3.46-2.81,6.27-6.27,6.27
			C191.9,93.74,189.09,90.93,189.09,87.47l-0.08,0c0,3.52,2.86,6.37,6.37,6.37s6.37-2.86,6.37-6.37s-2.86-6.37-6.37-6.37
			s-6.37,2.86-6.37,6.37"/>
		<path class="st37" d="M188.99,87.47c0-3.52,2.86-6.37,6.37-6.37c3.52,0,6.37,2.86,6.37,6.37c0,3.52-2.86,6.37-6.37,6.37
			C191.84,93.85,188.99,90.99,188.99,87.47l-0.08,0c0,3.58,2.9,6.48,6.48,6.48s6.48-2.9,6.48-6.48s-2.9-6.48-6.48-6.48
			s-6.48,2.9-6.48,6.48"/>
		<path class="st38" d="M189,87.35c0-3.58,2.9-6.48,6.48-6.48s6.48,2.9,6.48,6.48c0,3.58-2.9,6.48-6.48,6.48S189,90.93,189,87.35
			l-0.2,0.12c0,3.64,2.95,6.59,6.59,6.59s6.59-2.95,6.59-6.59s-2.95-6.59-6.59-6.59s-6.59,2.95-6.59,6.59"/>
		<path class="st38" d="M188.77,87.47c0-3.64,2.95-6.59,6.59-6.59s6.59,2.95,6.59,6.59c0,3.64-2.95,6.59-6.59,6.59
			S188.77,91.11,188.77,87.47l-0.08,0c0,3.69,3,6.69,6.69,6.69c3.69,0,6.69-3,6.69-6.69c0-3.69-3-6.69-6.69-6.69
			c-3.69,0-6.69,3-6.69,6.69"/>
		<path class="st39" d="M188.67,87.47c0-3.69,3-6.69,6.69-6.69c3.69,0,6.69,3,6.69,6.69s-3,6.69-6.69,6.69
			C191.67,94.17,188.67,91.17,188.67,87.47l-0.08,0c0,3.75,3.05,6.8,6.8,6.8s6.8-3.05,6.8-6.8c0-3.75-3.05-6.8-6.8-6.8
			s-6.8,3.05-6.8,6.8"/>
		<path class="st40" d="M188.56,87.47c0-3.75,3.05-6.8,6.8-6.8c3.75,0,6.8,3.05,6.8,6.8c0,3.75-3.05,6.8-6.8,6.8
			C191.61,94.27,188.56,91.23,188.56,87.47l-0.08,0c0,3.81,3.09,6.91,6.91,6.91s6.91-3.09,6.91-6.91c0-3.81-3.09-6.91-6.91-6.91
			s-6.91,3.09-6.91,6.91"/>
		<path class="st41" d="M188.45,87.47c0-3.81,3.09-6.91,6.91-6.91c3.81,0,6.91,3.09,6.91,6.91c0,3.81-3.09,6.91-6.91,6.91
			C191.55,94.38,188.45,91.29,188.45,87.47l-0.08,0c0,3.87,3.14,7.01,7.01,7.01c3.87,0,7.01-3.14,7.01-7.01s-3.14-7.01-7.01-7.01
			c-3.87,0-7.01,3.14-7.01,7.01"/>
		<path class="st41" d="M188.35,87.47c0-3.87,3.14-7.01,7.01-7.01c3.87,0,7.01,3.14,7.01,7.01c0,3.87-3.14,7.01-7.01,7.01
			C191.49,94.49,188.35,91.34,188.35,87.47l-0.08,0c0,3.93,3.19,7.12,7.12,7.12c3.93,0,7.12-3.19,7.12-7.12
			c0-3.93-3.19-7.12-7.12-7.12c-3.93,0-7.12,3.19-7.12,7.12"/>
		<path class="st42" d="M188.24,87.47c0-3.93,3.19-7.12,7.12-7.12c3.93,0,7.12,3.19,7.12,7.12c0,3.93-3.19,7.12-7.12,7.12
			C191.43,94.59,188.24,91.4,188.24,87.47l-0.08,0c0,3.99,3.24,7.22,7.22,7.22s7.22-3.24,7.22-7.22s-3.24-7.22-7.22-7.22
			s-7.22,3.24-7.22,7.22"/>
		<path class="st42" d="M188.14,87.47c0-3.99,3.24-7.22,7.22-7.22c3.99,0,7.22,3.24,7.22,7.22c0,3.99-3.24,7.22-7.22,7.22
			C191.37,94.7,188.14,91.46,188.14,87.47l-0.08,0c0,4.05,3.28,7.33,7.33,7.33s7.33-3.28,7.33-7.33s-3.28-7.33-7.33-7.33
			s-7.33,3.28-7.33,7.33"/>
		<path class="st43" d="M188.03,87.47c0-4.05,3.28-7.33,7.33-7.33c4.05,0,7.33,3.28,7.33,7.33s-3.28,7.33-7.33,7.33
			C191.31,94.8,188.03,91.52,188.03,87.47l-0.08,0c0,4.11,3.33,7.44,7.44,7.44c4.11,0,7.44-3.33,7.44-7.44
			c0-4.11-3.33-7.44-7.44-7.44c-4.11,0-7.44,3.33-7.44,7.44"/>
		<path class="st44" d="M188.04,87.47c0-4.11,3.33-7.44,7.44-7.44c4.11,0,7.44,3.33,7.44,7.44c0,4.11-3.33,7.44-7.44,7.44
			C191.37,94.91,188.04,91.58,188.04,87.47l-0.2,0c0,4.16,3.38,7.54,7.54,7.54s7.54-3.38,7.54-7.54c0-4.16-3.38-7.54-7.54-7.54
			s-7.54,3.38-7.54,7.54"/>
		<path class="st44" d="M187.82,87.47c0-4.16,3.38-7.54,7.54-7.54c4.16,0,7.54,3.38,7.54,7.54c0,4.16-3.38,7.54-7.54,7.54
			C191.2,95.02,187.82,91.64,187.82,87.47l-0.08,0c0,4.22,3.43,7.65,7.65,7.65s7.65-3.43,7.65-7.65s-3.43-7.65-7.65-7.65
			s-7.65,3.43-7.65,7.65"/>
		<path class="st45" d="M187.71,87.47c0-4.22,3.43-7.65,7.65-7.65c4.22,0,7.65,3.43,7.65,7.65c0,4.22-3.43,7.65-7.65,7.65
			C191.14,95.12,187.71,91.7,187.71,87.47l-0.08,0c0,4.28,3.47,7.76,7.76,7.76s7.76-3.47,7.76-7.76c0-4.28-3.47-7.76-7.76-7.76
			s-7.76,3.47-7.76,7.76"/>
		<path class="st46" d="M187.6,87.47c0-4.28,3.47-7.76,7.76-7.76c4.28,0,7.76,3.47,7.76,7.76c0,4.28-3.47,7.76-7.76,7.76
			C191.08,95.23,187.6,91.75,187.6,87.47l-0.08,0c0,4.34,3.52,7.86,7.86,7.86c4.34,0,7.86-3.52,7.86-7.86
			c0-4.34-3.52-7.86-7.86-7.86c-4.34,0-7.86,3.52-7.86,7.86"/>
		<path class="st47" d="M187.5,87.47c0-4.34,3.52-7.86,7.86-7.86c4.34,0,7.86,3.52,7.86,7.86c0,4.34-3.52,7.86-7.86,7.86
			C191.02,95.34,187.5,91.81,187.5,87.47l-0.08,0c0,4.4,3.57,7.97,7.97,7.97s7.97-3.57,7.97-7.97s-3.57-7.97-7.97-7.97
			s-7.97,3.57-7.97,7.97"/>
		<path class="st47" d="M187.39,87.47c0-4.4,3.57-7.97,7.97-7.97c4.4,0,7.97,3.57,7.97,7.97c0,4.4-3.57,7.97-7.97,7.97
			C190.96,95.44,187.39,91.87,187.39,87.47l-0.08,0c0,4.46,3.62,8.07,8.07,8.07s8.07-3.62,8.07-8.07c0-4.46-3.62-8.07-8.07-8.07
			s-8.07,3.62-8.07,8.07"/>
		<path class="st48" d="M187.29,87.47c0-4.46,3.62-8.07,8.07-8.07c4.46,0,8.07,3.62,8.07,8.07c0,4.46-3.62,8.07-8.07,8.07
			C190.9,95.55,187.29,91.93,187.29,87.47l-0.08,0c0,4.52,3.67,8.18,8.18,8.18s8.18-3.67,8.18-8.18c0-4.52-3.67-8.18-8.18-8.18
			s-8.18,3.67-8.18,8.18"/>
		<path class="st49" d="M187.3,87.47c0-4.52,3.67-8.18,8.18-8.18s8.18,3.67,8.18,8.18c0,4.52-3.67,8.18-8.18,8.18
			S187.3,91.99,187.3,87.47l-0.2,0c0,4.57,3.71,8.29,8.29,8.29s8.29-3.71,8.29-8.29s-3.71-8.29-8.29-8.29s-8.29,3.71-8.29,8.29"/>
		<path class="st50" d="M187.07,87.47c0-4.57,3.71-8.29,8.29-8.29c4.57,0,8.29,3.71,8.29,8.29c0,4.57-3.71,8.29-8.29,8.29
			C190.79,95.76,187.07,92.05,187.07,87.47l-0.08,0c0,4.63,3.76,8.39,8.39,8.39s8.39-3.76,8.39-8.39c0-4.63-3.76-8.39-8.39-8.39
			s-8.39,3.76-8.39,8.39"/>
		<path class="st50" d="M187.09,87.47c0-4.63,3.76-8.39,8.39-8.39s8.39,3.76,8.39,8.39c0,4.63-3.76,8.39-8.39,8.39
			S187.09,92.11,187.09,87.47l-0.2,0c0,4.69,3.81,8.5,8.5,8.5s8.5-3.81,8.5-8.5c0-4.69-3.81-8.5-8.5-8.5s-8.5,3.81-8.5,8.5"/>
		<path class="st51" d="M186.86,87.47c0-4.69,3.81-8.5,8.5-8.5c4.69,0,8.5,3.81,8.5,8.5c0,4.69-3.81,8.5-8.5,8.5
			C190.67,95.97,186.86,92.17,186.86,87.47l-0.08,0c0,4.75,3.86,8.61,8.61,8.61s8.61-3.86,8.61-8.61s-3.86-8.61-8.61-8.61
			s-8.61,3.86-8.61,8.61"/>
		<path class="st51" d="M186.75,87.47c0-4.75,3.86-8.61,8.61-8.61c4.75,0,8.61,3.86,8.61,8.61s-3.86,8.61-8.61,8.61
			C190.61,96.08,186.75,92.22,186.75,87.47l-0.08,0c0,4.81,3.9,8.71,8.71,8.71s8.71-3.9,8.71-8.71c0-4.81-3.9-8.71-8.71-8.71
			s-8.71,3.9-8.71,8.71"/>
		<path class="st52" d="M186.65,87.47c0-4.81,3.9-8.71,8.71-8.71c4.81,0,8.71,3.9,8.71,8.71s-3.9,8.71-8.71,8.71
			C190.55,96.19,186.65,92.28,186.65,87.47l-0.08,0c0,4.87,3.95,8.82,8.82,8.82s8.82-3.95,8.82-8.82c0-4.87-3.95-8.82-8.82-8.82
			s-8.82,3.95-8.82,8.82"/>
		<path class="st53" d="M186.54,87.47c0-4.87,3.95-8.82,8.82-8.82c4.87,0,8.82,3.95,8.82,8.82c0,4.87-3.95,8.82-8.82,8.82
			C190.49,96.29,186.54,92.34,186.54,87.47l-0.08,0c0,4.93,4,8.92,8.92,8.92s8.92-4,8.92-8.92s-4-8.92-8.92-8.92s-8.92,4-8.92,8.92"
			/>
		<path class="st54" d="M186.44,87.47c0-4.93,4-8.92,8.92-8.92c4.93,0,8.92,4,8.92,8.92c0,4.93-4,8.92-8.92,8.92
			C190.43,96.4,186.44,92.4,186.44,87.47l-0.08,0c0,4.99,4.05,9.03,9.03,9.03s9.03-4.05,9.03-9.03c0-4.99-4.05-9.03-9.03-9.03
			s-9.03,4.05-9.03,9.03"/>
		<path class="st55" d="M186.33,87.47c0-4.99,4.05-9.03,9.03-9.03c4.99,0,9.03,4.05,9.03,9.03c0,4.99-4.05,9.03-9.03,9.03
			C190.37,96.5,186.33,92.46,186.33,87.47l-0.08,0c0,5.04,4.09,9.14,9.14,9.14s9.14-4.09,9.14-9.14c0-5.04-4.09-9.14-9.14-9.14
			s-9.14,4.09-9.14,9.14"/>
		<path class="st56" d="M186.34,87.47c0-5.04,4.09-9.14,9.14-9.14s9.14,4.09,9.14,9.14c0,5.04-4.09,9.14-9.14,9.14
			S186.34,92.52,186.34,87.47l-0.2,0c0,5.1,4.14,9.24,9.24,9.24c5.1,0,9.24-4.14,9.24-9.24c0-5.1-4.14-9.24-9.24-9.24
			c-5.1,0-9.24,4.14-9.24,9.24"/>
		<path class="st57" d="M186.12,87.47c0-5.1,4.14-9.24,9.24-9.24c5.1,0,9.24,4.14,9.24,9.24s-4.14,9.24-9.24,9.24
			C190.26,96.72,186.12,92.58,186.12,87.47l-0.08,0c0,5.16,4.19,9.35,9.35,9.35s9.35-4.19,9.35-9.35c0-5.16-4.19-9.35-9.35-9.35
			s-9.35,4.19-9.35,9.35"/>
		<path class="st58" d="M186.13,87.47c0-5.16,4.19-9.35,9.35-9.35s9.35,4.19,9.35,9.35c0,5.16-4.19,9.35-9.35,9.35
			S186.13,92.63,186.13,87.47l-0.2,0c0,5.22,4.24,9.46,9.46,9.46s9.46-4.24,9.46-9.46c0-5.22-4.24-9.46-9.46-9.46
			s-9.46,4.24-9.46,9.46"/>
		<path class="st58" d="M185.9,87.47c0-5.22,4.24-9.46,9.46-9.46c5.22,0,9.46,4.24,9.46,9.46s-4.24,9.46-9.46,9.46
			C190.14,96.93,185.9,92.69,185.9,87.47l-0.08,0c0,5.28,4.28,9.56,9.56,9.56c5.28,0,9.56-4.28,9.56-9.56s-4.28-9.56-9.56-9.56
			c-5.28,0-9.56,4.28-9.56,9.56"/>
		<path class="st59" d="M185.8,87.47c0-5.28,4.28-9.56,9.56-9.56c5.28,0,9.56,4.28,9.56,9.56c0,5.28-4.28,9.56-9.56,9.56
			C190.08,97.04,185.8,92.75,185.8,87.47l-0.08,0c0,5.34,4.33,9.67,9.67,9.67c5.34,0,9.67-4.33,9.67-9.67
			c0-5.34-4.33-9.67-9.67-9.67c-5.34,0-9.67,4.33-9.67,9.67"/>
		<path class="st60" d="M185.69,87.47c0-5.34,4.33-9.67,9.67-9.67c5.34,0,9.67,4.33,9.67,9.67c0,5.34-4.33,9.67-9.67,9.67
			C190.02,97.14,185.69,92.81,185.69,87.47l-0.08,0c0,5.4,4.38,9.77,9.77,9.77s9.77-4.38,9.77-9.77c0-5.4-4.38-9.77-9.77-9.77
			s-9.77,4.38-9.77,9.77"/>
		<path class="st60" d="M185.59,87.47c0-5.4,4.38-9.77,9.77-9.77c5.4,0,9.77,4.38,9.77,9.77s-4.38,9.77-9.77,9.77
			C189.96,97.25,185.59,92.87,185.59,87.47l-0.08,0c0,5.45,4.43,9.88,9.88,9.88s9.88-4.43,9.88-9.88c0-5.45-4.43-9.88-9.88-9.88
			s-9.88,4.43-9.88,9.88"/>
		<path class="st61" d="M185.48,87.47c0-5.45,4.43-9.88,9.88-9.88c5.45,0,9.88,4.43,9.88,9.88s-4.43,9.88-9.88,9.88
			C189.91,97.35,185.48,92.93,185.48,87.47l-0.08,0c0,5.51,4.47,9.99,9.99,9.99s9.99-4.47,9.99-9.99c0-5.51-4.47-9.99-9.99-9.99
			s-9.99,4.47-9.99,9.99"/>
		<path class="st62" d="M185.37,87.47c0-5.51,4.47-9.99,9.99-9.99c5.51,0,9.99,4.47,9.99,9.99c0,5.51-4.47,9.99-9.99,9.99
			C189.85,97.46,185.37,92.99,185.37,87.47l-0.08,0c0,5.57,4.52,10.09,10.09,10.09s10.09-4.52,10.09-10.09
			c0-5.57-4.52-10.09-10.09-10.09s-10.09,4.52-10.09,10.09"/>
		<path class="st63" d="M185.39,87.47c0-5.57,4.52-10.09,10.09-10.09s10.09,4.52,10.09,10.09c0,5.57-4.52,10.09-10.09,10.09
			S185.39,93.04,185.39,87.47l-0.2,0c0,5.63,4.57,10.2,10.2,10.2s10.2-4.57,10.2-10.2c0-5.63-4.57-10.2-10.2-10.2
			s-10.2,4.57-10.2,10.2"/>
		<path class="st64" d="M185.16,87.47c0-5.63,4.57-10.2,10.2-10.2c5.63,0,10.2,4.57,10.2,10.2c0,5.63-4.57,10.2-10.2,10.2
			C189.73,97.67,185.16,93.1,185.16,87.47l-0.08,0c0,5.69,4.62,10.31,10.31,10.31s10.31-4.62,10.31-10.31
			c0-5.69-4.62-10.31-10.31-10.31s-10.31,4.62-10.31,10.31"/>
		<path class="st65" d="M185.17,87.47c0-5.69,4.62-10.31,10.31-10.31s10.31,4.62,10.31,10.31c0,5.69-4.62,10.31-10.31,10.31
			S185.17,93.16,185.17,87.47l-0.2,0c0,5.75,4.66,10.41,10.41,10.41s10.41-4.66,10.41-10.41c0-5.75-4.66-10.41-10.41-10.41
			s-10.41,4.66-10.41,10.41"/>
		<path class="st66" d="M184.95,87.47c0-5.75,4.66-10.41,10.41-10.41c5.75,0,10.41,4.66,10.41,10.41s-4.66,10.41-10.41,10.41
			C189.61,97.89,184.95,93.22,184.95,87.47l-0.08,0c0,5.81,4.71,10.52,10.52,10.52s10.52-4.71,10.52-10.52
			c0-5.81-4.71-10.52-10.52-10.52s-10.52,4.71-10.52,10.52"/>
		<path class="st66" d="M184.84,87.47c0-5.81,4.71-10.52,10.52-10.52s10.52,4.71,10.52,10.52s-4.71,10.52-10.52,10.52
			S184.84,93.28,184.84,87.47l-0.08,0c0,5.86,4.76,10.62,10.62,10.62s10.62-4.76,10.62-10.62c0-5.86-4.76-10.62-10.62-10.62
			s-10.62,4.76-10.62,10.62"/>
		<path class="st67" d="M184.74,87.47c0-5.86,4.76-10.62,10.62-10.62c5.86,0,10.62,4.76,10.62,10.62c0,5.86-4.76,10.62-10.62,10.62
			C189.5,98.1,184.74,93.34,184.74,87.47l-0.08,0c0,5.92,4.81,10.73,10.73,10.73s10.73-4.81,10.73-10.73s-4.81-10.73-10.73-10.73
			s-10.73,4.81-10.73,10.73"/>
		<path class="st67" d="M184.63,87.47c0-5.92,4.81-10.73,10.73-10.73c5.92,0,10.73,4.81,10.73,10.73c0,5.92-4.81,10.73-10.73,10.73
			C189.44,98.2,184.63,93.4,184.63,87.47l-0.08,0c0,5.98,4.85,10.84,10.84,10.84s10.84-4.85,10.84-10.84
			c0-5.98-4.85-10.84-10.84-10.84s-10.84,4.85-10.84,10.84"/>
		<path class="st68" d="M184.52,87.47c0-5.98,4.85-10.84,10.84-10.84c5.98,0,10.84,4.85,10.84,10.84s-4.85,10.84-10.84,10.84
			C189.38,98.31,184.52,93.46,184.52,87.47l-0.08,0c0,6.04,4.9,10.94,10.94,10.94s10.94-4.9,10.94-10.94s-4.9-10.94-10.94-10.94
			s-10.94,4.9-10.94,10.94"/>
		<path class="st69" d="M184.42,87.47c0-6.04,4.9-10.94,10.94-10.94c6.04,0,10.94,4.9,10.94,10.94c0,6.04-4.9,10.94-10.94,10.94
			C189.32,98.42,184.42,93.51,184.42,87.47l-0.08,0c0,6.1,4.95,11.05,11.05,11.05c6.1,0,11.05-4.95,11.05-11.05
			c0-6.1-4.95-11.05-11.05-11.05c-6.1,0-11.05,4.95-11.05,11.05"/>
		<path class="st70" d="M184.43,87.47c0-6.1,4.95-11.05,11.05-11.05s11.05,4.95,11.05,11.05s-4.95,11.05-11.05,11.05
			S184.43,93.57,184.43,87.47l-0.2,0c0,6.16,5,11.16,11.16,11.16s11.16-5,11.16-11.16c0-6.16-5-11.16-11.16-11.16
			s-11.16,5-11.16,11.16"/>
		<path class="st71" d="M184.2,87.47c0-6.16,5-11.16,11.16-11.16c6.16,0,11.16,5,11.16,11.16s-5,11.16-11.16,11.16
			C189.2,98.63,184.2,93.63,184.2,87.47l-0.08,0c0,6.22,5.05,11.26,11.26,11.26s11.26-5.05,11.26-11.26
			c0-6.22-5.05-11.26-11.26-11.26s-11.26,5.05-11.26,11.26"/>
		<path class="st72" d="M184.22,87.47c0-6.22,5.05-11.26,11.26-11.26s11.26,5.05,11.26,11.26c0,6.22-5.05,11.26-11.26,11.26
			S184.22,93.69,184.22,87.47l-0.2,0c0,6.28,5.09,11.37,11.37,11.37c6.28,0,11.37-5.09,11.37-11.37s-5.09-11.37-11.37-11.37
			c-6.28,0-11.37,5.09-11.37,11.37"/>
		<path class="st73" d="M183.99,87.47c0-6.28,5.09-11.37,11.37-11.37c6.28,0,11.37,5.09,11.37,11.37c0,6.28-5.09,11.37-11.37,11.37
			C189.08,98.84,183.99,93.75,183.99,87.47l-0.08,0c0,6.33,5.14,11.47,11.47,11.47c6.33,0,11.47-5.14,11.47-11.47
			S201.72,76,195.38,76c-6.33,0-11.47,5.14-11.47,11.47"/>
		<path class="st73" d="M183.89,87.47c0-6.33,5.14-11.47,11.47-11.47c6.33,0,11.47,5.14,11.47,11.47c0,6.33-5.14,11.47-11.47,11.47
			C189.03,98.95,183.89,93.81,183.89,87.47l-0.08,0c0,6.39,5.19,11.58,11.58,11.58s11.58-5.19,11.58-11.58s-5.19-11.58-11.58-11.58
			s-11.58,5.19-11.58,11.58"/>
		<path class="st74" d="M183.78,87.47c0-6.39,5.19-11.58,11.58-11.58c6.39,0,11.58,5.19,11.58,11.58c0,6.39-5.19,11.58-11.58,11.58
			C188.97,99.05,183.78,93.87,183.78,87.47l-0.08,0c0,6.45,5.24,11.69,11.69,11.69s11.69-5.24,11.69-11.69s-5.24-11.69-11.69-11.69
			s-11.69,5.24-11.69,11.69"/>
		<path class="st74" d="M183.67,87.47c0-6.45,5.24-11.69,11.69-11.69c6.45,0,11.69,5.24,11.69,11.69s-5.24,11.69-11.69,11.69
			C188.91,99.16,183.67,93.92,183.67,87.47l-0.08,0c0,6.51,5.28,11.79,11.79,11.79c6.51,0,11.79-5.28,11.79-11.79
			c0-6.51-5.28-11.79-11.79-11.79c-6.51,0-11.79,5.28-11.79,11.79"/>
		<path class="st75" d="M183.57,87.47c0-6.51,5.28-11.79,11.79-11.79c6.51,0,11.79,5.28,11.79,11.79s-5.28,11.79-11.79,11.79
			C188.85,99.27,183.57,93.98,183.57,87.47l-0.08,0c0,6.57,5.33,11.9,11.9,11.9s11.9-5.33,11.9-11.9c0-6.57-5.33-11.9-11.9-11.9
			s-11.9,5.33-11.9,11.9"/>
		<path class="st76" d="M183.46,87.47c0-6.57,5.33-11.9,11.9-11.9c6.57,0,11.9,5.33,11.9,11.9c0,6.57-5.33,11.9-11.9,11.9
			C188.79,99.37,183.46,94.04,183.46,87.47l-0.08,0c0,6.63,5.38,12.01,12.01,12.01s12.01-5.38,12.01-12.01s-5.38-12.01-12.01-12.01
			s-12.01,5.38-12.01,12.01"/>
		<path class="st77" d="M183.47,87.47c0-6.63,5.38-12.01,12.01-12.01s12.01,5.38,12.01,12.01c0,6.63-5.38,12.01-12.01,12.01
			S183.47,94.1,183.47,87.47l-0.2,0c0,6.69,5.43,12.11,12.11,12.11s12.11-5.43,12.11-12.11s-5.43-12.11-12.11-12.11
			s-12.11,5.43-12.11,12.11"/>
		<path class="st78" d="M183.25,87.47c0-6.69,5.43-12.11,12.11-12.11c6.69,0,12.11,5.43,12.11,12.11c0,6.69-5.43,12.11-12.11,12.11
			C188.67,99.59,183.25,94.16,183.25,87.47l-0.08,0c0,6.74,5.47,12.22,12.22,12.22c6.74,0,12.22-5.47,12.22-12.22
			c0-6.74-5.47-12.22-12.22-12.22c-6.74,0-12.22,5.47-12.22,12.22"/>
		<path class="st79" d="M183.26,87.47c0-6.74,5.47-12.22,12.22-12.22s12.22,5.47,12.22,12.22c0,6.74-5.47,12.22-12.22,12.22
			S183.26,94.22,183.26,87.47l-0.2,0c0,6.8,5.52,12.32,12.32,12.32s12.32-5.52,12.32-12.32s-5.52-12.32-12.32-12.32
			s-12.32,5.52-12.32,12.32"/>
		<path class="st79" d="M183.04,87.47c0-6.8,5.52-12.32,12.32-12.32s12.32,5.52,12.32,12.32c0,6.8-5.52,12.32-12.32,12.32
			S183.04,94.28,183.04,87.47l-0.08,0c0,6.86,5.57,12.43,12.43,12.43s12.43-5.57,12.43-12.43s-5.57-12.43-12.43-12.43
			s-12.43,5.57-12.43,12.43"/>
		<path class="st80" d="M182.93,87.47c0-6.86,5.57-12.43,12.43-12.43c6.86,0,12.43,5.57,12.43,12.43s-5.57,12.43-12.43,12.43
			C188.5,99.9,182.93,94.34,182.93,87.47l-0.08,0c0,6.92,5.62,12.54,12.54,12.54s12.54-5.62,12.54-12.54
			c0-6.92-5.62-12.54-12.54-12.54s-12.54,5.62-12.54,12.54"/>
		<path class="st81" d="M182.82,87.47c0-6.92,5.62-12.54,12.54-12.54c6.92,0,12.54,5.62,12.54,12.54c0,6.92-5.62,12.54-12.54,12.54
			C188.44,100.01,182.82,94.39,182.82,87.47l-0.08,0c0,6.98,5.66,12.64,12.64,12.64s12.64-5.66,12.64-12.64s-5.66-12.64-12.64-12.64
			s-12.64,5.66-12.64,12.64"/>
		<path class="st81" d="M182.72,87.47c0-6.98,5.66-12.64,12.64-12.64c6.98,0,12.64,5.66,12.64,12.64c0,6.98-5.66,12.64-12.64,12.64
			C188.38,100.12,182.72,94.45,182.72,87.47l-0.08,0c0,7.04,5.71,12.75,12.75,12.75s12.75-5.71,12.75-12.75s-5.71-12.75-12.75-12.75
			s-12.75,5.71-12.75,12.75"/>
		<path class="st82" d="M182.61,87.47c0-7.04,5.71-12.75,12.75-12.75s12.75,5.71,12.75,12.75c0,7.04-5.71,12.75-12.75,12.75
			S182.61,94.51,182.61,87.47l-0.08,0c0,7.1,5.76,12.86,12.86,12.86s12.86-5.76,12.86-12.86c0-7.1-5.76-12.86-12.86-12.86
			s-12.86,5.76-12.86,12.86"/>
		<path class="st83" d="M182.5,87.47c0-7.1,5.76-12.86,12.86-12.86c7.1,0,12.86,5.76,12.86,12.86c0,7.1-5.76,12.86-12.86,12.86
			C188.26,100.33,182.5,94.57,182.5,87.47l-0.08,0c0,7.15,5.81,12.96,12.96,12.96s12.96-5.81,12.96-12.96s-5.81-12.96-12.96-12.96
			s-12.96,5.81-12.96,12.96"/>
		<path class="st84" d="M182.52,87.47c0-7.15,5.81-12.96,12.96-12.96s12.96,5.81,12.96,12.96s-5.81,12.96-12.96,12.96
			S182.52,94.63,182.52,87.47l-0.2,0c0,7.21,5.85,13.07,13.07,13.07s13.07-5.85,13.07-13.07S202.6,74.4,195.38,74.4
			s-13.07,5.85-13.07,13.07"/>
		<path class="st84" d="M182.29,87.47c0-7.21,5.85-13.07,13.07-13.07c7.21,0,13.07,5.85,13.07,13.07c0,7.21-5.85,13.07-13.07,13.07
			C188.15,100.54,182.29,94.69,182.29,87.47l-0.08,0c0,7.27,5.9,13.17,13.17,13.17s13.17-5.9,13.17-13.17
			c0-7.27-5.9-13.17-13.17-13.17s-13.17,5.9-13.17,13.17"/>
		<path class="st85" d="M182.19,87.47c0-7.27,5.9-13.17,13.17-13.17c7.27,0,13.17,5.9,13.17,13.17c0,7.27-5.9,13.17-13.17,13.17
			C188.09,100.65,182.19,94.75,182.19,87.47l-0.08,0c0,7.33,5.95,13.28,13.28,13.28c7.33,0,13.28-5.95,13.28-13.28
			s-5.95-13.28-13.28-13.28c-7.33,0-13.28,5.95-13.28,13.28"/>
		<path class="st86" d="M182.08,87.47c0-7.33,5.95-13.28,13.28-13.28c7.33,0,13.28,5.95,13.28,13.28c0,7.33-5.95,13.28-13.28,13.28
			C188.03,100.75,182.08,94.8,182.08,87.47l-0.08,0c0,7.39,6,13.39,13.39,13.39s13.39-6,13.39-13.39s-6-13.39-13.39-13.39
			S182,80.08,182,87.47"/>
		<path class="st87" d="M181.97,87.47c0-7.39,6-13.39,13.39-13.39c7.39,0,13.39,6,13.39,13.39c0,7.39-6,13.39-13.39,13.39
			C187.97,100.86,181.97,94.86,181.97,87.47l-0.08,0c0,7.45,6.04,13.49,13.49,13.49s13.49-6.04,13.49-13.49
			c0-7.45-6.04-13.49-13.49-13.49s-13.49,6.04-13.49,13.49"/>
		<path class="st88" d="M181.87,87.47c0-7.45,6.04-13.49,13.49-13.49c7.45,0,13.49,6.04,13.49,13.49c0,7.45-6.04,13.49-13.49,13.49
			C187.91,100.97,181.87,94.92,181.87,87.47l-0.08,0c0,7.51,6.09,13.6,13.6,13.6c7.51,0,13.6-6.09,13.6-13.6
			c0-7.51-6.09-13.6-13.6-13.6c-7.51,0-13.6,6.09-13.6,13.6"/>
		<path class="st89" d="M181.76,87.47c0-7.51,6.09-13.6,13.6-13.6c7.51,0,13.6,6.09,13.6,13.6s-6.09,13.6-13.6,13.6
			C187.85,101.07,181.76,94.98,181.76,87.47l-0.08,0c0,7.57,6.14,13.71,13.71,13.71s13.71-6.14,13.71-13.71s-6.14-13.71-13.71-13.71
			s-13.71,6.14-13.71,13.71"/>
		<path class="st90" d="M181.65,87.47c0-7.57,6.14-13.71,13.71-13.71c7.57,0,13.71,6.14,13.71,13.71c0,7.57-6.14,13.71-13.71,13.71
			C187.79,101.18,181.65,95.04,181.65,87.47l-0.08,0c0,7.62,6.19,13.81,13.81,13.81s13.81-6.19,13.81-13.81
			c0-7.62-6.19-13.81-13.81-13.81s-13.81,6.19-13.81,13.81"/>
		<path class="st90" d="M181.55,87.47c0-7.62,6.19-13.81,13.81-13.81c7.62,0,13.81,6.19,13.81,13.81s-6.19,13.81-13.81,13.81
			C187.74,101.29,181.55,95.1,181.55,87.47l-0.08,0c0,7.68,6.24,13.92,13.92,13.92s13.92-6.24,13.92-13.92s-6.24-13.92-13.92-13.92
			s-13.92,6.24-13.92,13.92"/>
		<path class="st91" d="M181.56,87.47c0-7.68,6.24-13.92,13.92-13.92s13.92,6.24,13.92,13.92c0,7.68-6.24,13.92-13.92,13.92
			S181.56,95.16,181.56,87.47l-0.2,0c0,7.74,6.28,14.02,14.02,14.02c7.74,0,14.02-6.28,14.02-14.02c0-7.74-6.28-14.02-14.02-14.02
			c-7.74,0-14.02,6.28-14.02,14.02"/>
		<path class="st92" d="M181.34,87.47c0-7.74,6.28-14.02,14.02-14.02c7.74,0,14.02,6.28,14.02,14.02c0,7.74-6.28,14.02-14.02,14.02
			C187.62,101.5,181.34,95.21,181.34,87.47l-0.08,0c0,7.8,6.33,14.13,14.13,14.13s14.13-6.33,14.13-14.13
			c0-7.8-6.33-14.13-14.13-14.13s-14.13,6.33-14.13,14.13"/>
		<path class="st93" d="M181.23,87.47c0-7.8,6.33-14.13,14.13-14.13c7.8,0,14.13,6.33,14.13,14.13c0,7.8-6.33,14.13-14.13,14.13
			C187.56,101.6,181.23,95.27,181.23,87.47l-0.08,0c0,7.86,6.38,14.24,14.24,14.24s14.24-6.38,14.24-14.24
			c0-7.86-6.38-14.24-14.24-14.24s-14.24,6.38-14.24,14.24"/>
		<path class="st94" d="M181.12,87.47c0-7.86,6.38-14.24,14.24-14.24c7.86,0,14.24,6.38,14.24,14.24s-6.38,14.24-14.24,14.24
			C187.5,101.71,181.12,95.33,181.12,87.47l-0.08,0c0,7.92,6.43,14.34,14.34,14.34s14.34-6.43,14.34-14.34
			c0-7.92-6.43-14.34-14.34-14.34s-14.34,6.43-14.34,14.34"/>
		<path class="st94" d="M181.02,87.47c0-7.92,6.43-14.34,14.34-14.34c7.92,0,14.34,6.43,14.34,14.34c0,7.92-6.43,14.34-14.34,14.34
			C187.44,101.82,181.02,95.39,181.02,87.47l-0.08,0c0,7.98,6.47,14.45,14.45,14.45s14.45-6.47,14.45-14.45
			c0-7.98-6.47-14.45-14.45-14.45s-14.45,6.47-14.45,14.45"/>
		<path class="st95" d="M180.91,87.47c0-7.98,6.47-14.45,14.45-14.45c7.98,0,14.45,6.47,14.45,14.45c0,7.98-6.47,14.45-14.45,14.45
			C187.38,101.92,180.91,95.45,180.91,87.47l-0.08,0c0,8.03,6.52,14.56,14.56,14.56s14.56-6.52,14.56-14.56
			c0-8.03-6.52-14.56-14.56-14.56s-14.56,6.52-14.56,14.56"/>
		<path class="st96" d="M180.8,87.47c0-8.03,6.52-14.56,14.56-14.56s14.56,6.52,14.56,14.56s-6.52,14.56-14.56,14.56
			S180.8,95.51,180.8,87.47l-0.08,0c0,8.09,6.57,14.66,14.66,14.66s14.66-6.57,14.66-14.66c0-8.09-6.57-14.66-14.66-14.66
			s-14.66,6.57-14.66,14.66"/>
		<path class="st97" d="M180.82,87.47c0-8.09,6.57-14.66,14.66-14.66s14.66,6.57,14.66,14.66c0,8.09-6.57,14.66-14.66,14.66
			S180.82,95.57,180.82,87.47l-0.2,0c0,8.15,6.62,14.77,14.77,14.77s14.77-6.62,14.77-14.77c0-8.15-6.62-14.77-14.77-14.77
			s-14.77,6.62-14.77,14.77"/>
		<path class="st98" d="M180.59,87.47c0-8.15,6.62-14.77,14.77-14.77c8.15,0,14.77,6.62,14.77,14.77c0,8.15-6.62,14.77-14.77,14.77
			C187.21,102.24,180.59,95.63,180.59,87.47l-0.08,0c0,8.21,6.66,14.87,14.87,14.87s14.87-6.66,14.87-14.87
			c0-8.21-6.66-14.87-14.87-14.87s-14.87,6.66-14.87,14.87"/>
		<path class="st98" d="M180.61,87.47c0-8.21,6.66-14.87,14.87-14.87s14.87,6.66,14.87,14.87s-6.66,14.87-14.87,14.87
			S180.61,95.68,180.61,87.47l-0.2,0c0,8.27,6.71,14.98,14.98,14.98s14.98-6.71,14.98-14.98c0-8.27-6.71-14.98-14.98-14.98
			S180.4,79.2,180.4,87.47"/>
		<path class="st99" d="M180.38,87.47c0-8.27,6.71-14.98,14.98-14.98c8.27,0,14.98,6.71,14.98,14.98c0,8.27-6.71,14.98-14.98,14.98
			C187.09,102.45,180.38,95.74,180.38,87.47l-0.08,0c0,8.33,6.76,15.09,15.09,15.09s15.09-6.76,15.09-15.09
			c0-8.33-6.76-15.09-15.09-15.09s-15.09,6.76-15.09,15.09"/>
		<path class="st100" d="M180.27,87.47c0-8.33,6.76-15.09,15.09-15.09c8.33,0,15.09,6.76,15.09,15.09c0,8.33-6.76,15.09-15.09,15.09
			C187.03,102.56,180.27,95.8,180.27,87.47l-0.08,0c0,8.39,6.81,15.19,15.19,15.19s15.19-6.81,15.19-15.19
			c0-8.39-6.81-15.19-15.19-15.19s-15.19,6.81-15.19,15.19"/>
		<path class="st101" d="M180.17,87.47c0-8.39,6.81-15.19,15.19-15.19c8.39,0,15.19,6.81,15.19,15.19s-6.81,15.19-15.19,15.19
			C186.97,102.67,180.17,95.86,180.17,87.47l-0.08,0c0,8.45,6.85,15.3,15.3,15.3s15.3-6.85,15.3-15.3s-6.85-15.3-15.3-15.3
			s-15.3,6.85-15.3,15.3"/>
		<path class="st102" d="M180.06,87.47c0-8.45,6.85-15.3,15.3-15.3c8.45,0,15.3,6.85,15.3,15.3c0,8.45-6.85,15.3-15.3,15.3
			C186.91,102.77,180.06,95.92,180.06,87.47l-0.08,0c0,8.5,6.9,15.41,15.41,15.41c8.5,0,15.41-6.9,15.41-15.41
			c0-8.5-6.9-15.41-15.41-15.41c-8.5,0-15.41,6.9-15.41,15.41"/>
		<path class="st102" d="M179.95,87.47c0-8.5,6.9-15.41,15.41-15.41c8.5,0,15.41,6.9,15.41,15.41c0,8.5-6.9,15.41-15.41,15.41
			C186.86,102.88,179.95,95.98,179.95,87.47l-0.08,0c0,8.56,6.95,15.51,15.51,15.51s15.51-6.95,15.51-15.51
			c0-8.56-6.95-15.51-15.51-15.51s-15.51,6.95-15.51,15.51"/>
		<path class="st103" d="M179.85,87.47c0-8.56,6.95-15.51,15.51-15.51c8.56,0,15.51,6.95,15.51,15.51s-6.95,15.51-15.51,15.51
			C186.8,102.99,179.85,96.04,179.85,87.47l-0.08,0c0,8.62,7,15.62,15.62,15.62s15.62-7,15.62-15.62c0-8.62-7-15.62-15.62-15.62
			s-15.62,7-15.62,15.62"/>
		<path class="st103" d="M179.86,87.47c0-8.62,7-15.62,15.62-15.62s15.62,7,15.62,15.62c0,8.62-7,15.62-15.62,15.62
			S179.86,96.09,179.86,87.47l-0.2,0c0,8.68,7.04,15.72,15.72,15.72s15.72-7.04,15.72-15.72c0-8.68-7.04-15.72-15.72-15.72
			s-15.72,7.04-15.72,15.72"/>
		<path class="st104" d="M179.64,87.47c0-8.68,7.04-15.72,15.72-15.72c8.68,0,15.72,7.04,15.72,15.72c0,8.68-7.04,15.72-15.72,15.72
			C186.68,103.2,179.64,96.15,179.64,87.47l-0.08,0c0,8.74,7.09,15.83,15.83,15.83c8.74,0,15.83-7.09,15.83-15.83
			s-7.09-15.83-15.83-15.83c-8.74,0-15.83,7.09-15.83,15.83"/>
		<path class="st105" d="M179.65,87.47c0-8.74,7.09-15.83,15.83-15.83s15.83,7.09,15.83,15.83c0,8.74-7.09,15.83-15.83,15.83
			S179.65,96.21,179.65,87.47l-0.2,0c0,8.8,7.14,15.94,15.94,15.94s15.94-7.14,15.94-15.94s-7.14-15.94-15.94-15.94
			s-15.94,7.14-15.94,15.94"/>
		<path class="st105" d="M179.42,87.47c0-8.8,7.14-15.94,15.94-15.94c8.8,0,15.94,7.14,15.94,15.94c0,8.8-7.14,15.94-15.94,15.94
			C186.56,103.41,179.42,96.27,179.42,87.47l-0.08,0c0,8.86,7.19,16.04,16.04,16.04s16.04-7.19,16.04-16.04s-7.19-16.04-16.04-16.04
			s-16.04,7.19-16.04,16.04"/>
		<path class="st106" d="M179.32,87.47c0-8.86,7.19-16.04,16.04-16.04c8.86,0,16.04,7.19,16.04,16.04c0,8.86-7.19,16.04-16.04,16.04
			C186.5,103.52,179.32,96.33,179.32,87.47l-0.08,0c0,8.91,7.23,16.15,16.15,16.15s16.15-7.23,16.15-16.15
			c0-8.91-7.23-16.15-16.15-16.15s-16.15,7.23-16.15,16.15"/>
		<path class="st107" d="M179.21,87.47c0-8.91,7.23-16.15,16.15-16.15c8.91,0,16.15,7.23,16.15,16.15s-7.23,16.15-16.15,16.15
			C186.45,103.62,179.21,96.39,179.21,87.47l-0.08,0c0,8.97,7.28,16.26,16.26,16.26s16.26-7.28,16.26-16.26
			c0-8.97-7.28-16.26-16.26-16.26s-16.26,7.28-16.26,16.26"/>
		<path class="st108" d="M179.1,87.47c0-8.97,7.28-16.26,16.26-16.26c8.97,0,16.26,7.28,16.26,16.26c0,8.97-7.28,16.26-16.26,16.26
			C186.39,103.73,179.1,96.45,179.1,87.47l-0.08,0c0,9.03,7.33,16.36,16.36,16.36s16.36-7.33,16.36-16.36
			c0-9.03-7.33-16.36-16.36-16.36s-16.36,7.33-16.36,16.36"/>
		<path class="st109" d="M179,87.47c0-9.03,7.33-16.36,16.36-16.36c9.03,0,16.36,7.33,16.36,16.36c0,9.03-7.33,16.36-16.36,16.36
			C186.33,103.84,179,96.51,179,87.47l-0.08,0c0,9.09,7.38,16.47,16.47,16.47s16.47-7.38,16.47-16.47S204.47,71,195.38,71
			s-16.47,7.38-16.47,16.47"/>
		<path class="st109" d="M178.89,87.47c0-9.09,7.38-16.47,16.47-16.47c9.09,0,16.47,7.38,16.47,16.47c0,9.09-7.38,16.47-16.47,16.47
			C186.27,103.94,178.89,96.56,178.89,87.47l-0.08,0c0,9.15,7.43,16.57,16.57,16.57s16.57-7.43,16.57-16.57
			c0-9.15-7.43-16.57-16.57-16.57s-16.57,7.43-16.57,16.57"/>
		<path class="st110" d="M178.91,87.47c0-9.15,7.43-16.57,16.57-16.57s16.57,7.43,16.57,16.57c0,9.15-7.43,16.57-16.57,16.57
			S178.91,96.62,178.91,87.47l-0.2,0c0,9.21,7.47,16.68,16.68,16.68s16.68-7.47,16.68-16.68s-7.47-16.68-16.68-16.68
			s-16.68,7.47-16.68,16.68"/>
		<path class="st111" d="M178.68,87.47c0-9.21,7.47-16.68,16.68-16.68s16.68,7.47,16.68,16.68c0,9.21-7.47,16.68-16.68,16.68
			S178.68,96.68,178.68,87.47l-0.08,0c0,9.27,7.52,16.79,16.79,16.79s16.79-7.52,16.79-16.79s-7.52-16.79-16.79-16.79
			s-16.79,7.52-16.79,16.79"/>
		<path class="st112" d="M178.69,87.47c0-9.27,7.52-16.79,16.79-16.79s16.79,7.52,16.79,16.79s-7.52,16.79-16.79,16.79
			S178.69,96.74,178.69,87.47l-0.2,0c0,9.32,7.57,16.89,16.89,16.89s16.89-7.57,16.89-16.89c0-9.32-7.57-16.89-16.89-16.89
			s-16.89,7.57-16.89,16.89"/>
		<path class="st112" d="M178.47,87.47c0-9.32,7.57-16.89,16.89-16.89c9.32,0,16.89,7.57,16.89,16.89c0,9.32-7.57,16.89-16.89,16.89
			C186.04,104.37,178.47,96.8,178.47,87.47l-0.08,0c0,9.38,7.62,17,17,17s17-7.62,17-17c0-9.38-7.62-17-17-17s-17,7.62-17,17"/>
		<path class="st113" d="M178.36,87.47c0-9.38,7.62-17,17-17c9.38,0,17,7.62,17,17c0,9.38-7.62,17-17,17
			C185.98,104.47,178.36,96.86,178.36,87.47l-0.08,0c0,9.44,7.66,17.11,17.11,17.11s17.11-7.66,17.11-17.11s-7.66-17.11-17.11-17.11
			s-17.11,7.66-17.11,17.11"/>
		<path class="st114" d="M178.25,87.47c0-9.44,7.66-17.11,17.11-17.11s17.11,7.66,17.11,17.11c0,9.44-7.66,17.11-17.11,17.11
			S178.25,96.92,178.25,87.47l-0.08,0c0,9.5,7.71,17.21,17.21,17.21c9.5,0,17.21-7.71,17.21-17.21c0-9.5-7.71-17.21-17.21-17.21
			c-9.5,0-17.21,7.71-17.21,17.21"/>
		<path class="st115" d="M178.15,87.47c0-9.5,7.71-17.21,17.21-17.21c9.5,0,17.21,7.71,17.21,17.21c0,9.5-7.71,17.21-17.21,17.21
			C185.86,104.69,178.15,96.97,178.15,87.47l-0.08,0c0,9.56,7.76,17.32,17.32,17.32s17.32-7.76,17.32-17.32
			c0-9.56-7.76-17.32-17.32-17.32s-17.32,7.76-17.32,17.32"/>
		<path class="st116" d="M178.04,87.47c0-9.56,7.76-17.32,17.32-17.32c9.56,0,17.32,7.76,17.32,17.32c0,9.56-7.76,17.32-17.32,17.32
			C185.8,104.79,178.04,97.03,178.04,87.47l-0.08,0c0,9.62,7.81,17.42,17.42,17.42s17.42-7.81,17.42-17.42S205,70.05,195.38,70.05
			s-17.42,7.81-17.42,17.42"/>
		<path class="st117" d="M177.94,87.47c0-9.62,7.81-17.42,17.42-17.42c9.62,0,17.42,7.81,17.42,17.42c0,9.62-7.81,17.42-17.42,17.42
			C185.74,104.9,177.94,97.09,177.94,87.47l-0.08,0c0,9.68,7.85,17.53,17.53,17.53s17.53-7.85,17.53-17.53
			c0-9.68-7.85-17.53-17.53-17.53s-17.53,7.85-17.53,17.53"/>
		<path class="st118" d="M177.95,87.47c0-9.68,7.85-17.53,17.53-17.53s17.53,7.85,17.53,17.53c0,9.68-7.85,17.53-17.53,17.53
			S177.95,97.15,177.95,87.47l-0.2,0c0,9.74,7.9,17.64,17.64,17.64c9.74,0,17.64-7.9,17.64-17.64c0-9.74-7.9-17.64-17.64-17.64
			c-9.74,0-17.64,7.9-17.64,17.64"/>
		<path class="st119" d="M177.72,87.47c0-9.74,7.9-17.64,17.64-17.64c9.74,0,17.64,7.9,17.64,17.64c0,9.74-7.9,17.64-17.64,17.64
			C185.62,105.11,177.72,97.21,177.72,87.47l-0.08,0c0,9.79,7.95,17.74,17.74,17.74s17.74-7.95,17.74-17.74s-7.95-17.74-17.74-17.74
			s-17.74,7.95-17.74,17.74"/>
		<path class="st120" d="M177.74,87.47c0-9.79,7.95-17.74,17.74-17.74s17.74,7.95,17.74,17.74c0,9.79-7.95,17.74-17.74,17.74
			S177.74,97.27,177.74,87.47l-0.2,0c0,9.85,8,17.85,17.85,17.85s17.85-8,17.85-17.85c0-9.85-8-17.85-17.85-17.85
			s-17.85,8-17.85,17.85"/>
		<path class="st120" d="M177.51,87.47c0-9.85,8-17.85,17.85-17.85c9.85,0,17.85,8,17.85,17.85c0,9.85-8,17.85-17.85,17.85
			C185.51,105.32,177.51,97.33,177.51,87.47l-0.08,0c0,9.91,8.04,17.96,17.96,17.96c9.91,0,17.96-8.04,17.96-17.96
			c0-9.91-8.04-17.96-17.96-17.96c-9.91,0-17.96,8.04-17.96,17.96"/>
		<path class="st121" d="M177.4,87.47c0-9.91,8.04-17.96,17.96-17.96c9.91,0,17.96,8.04,17.96,17.96c0,9.91-8.04,17.96-17.96,17.96
			C185.45,105.43,177.4,97.38,177.4,87.47l-0.08,0c0,9.97,8.09,18.06,18.06,18.06s18.06-8.09,18.06-18.06s-8.09-18.06-18.06-18.06
			s-18.06,8.09-18.06,18.06"/>
		<path class="st122" d="M177.3,87.47c0-9.97,8.09-18.06,18.06-18.06c9.97,0,18.06,8.09,18.06,18.06s-8.09,18.06-18.06,18.06
			C185.39,105.54,177.3,97.44,177.3,87.47l-0.08,0c0,10.03,8.14,18.17,18.17,18.17s18.17-8.14,18.17-18.17
			c0-10.03-8.14-18.17-18.17-18.17s-18.17,8.14-18.17,18.17"/>
		<path class="st123" d="M177.19,87.47c0-10.03,8.14-18.17,18.17-18.17c10.03,0,18.17,8.14,18.17,18.17s-8.14,18.17-18.17,18.17
			C185.33,105.64,177.19,97.5,177.19,87.47l-0.08,0c0,10.09,8.19,18.27,18.27,18.27s18.27-8.19,18.27-18.27
			c0-10.09-8.19-18.27-18.27-18.27s-18.27,8.19-18.27,18.27"/>
		<path class="st124" d="M177.09,87.47c0-10.09,8.19-18.27,18.27-18.27c10.09,0,18.27,8.19,18.27,18.27
			c0,10.09-8.19,18.27-18.27,18.27C185.27,105.75,177.09,97.56,177.09,87.47l-0.08,0c0,10.15,8.23,18.38,18.38,18.38
			c10.15,0,18.38-8.23,18.38-18.38s-8.23-18.38-18.38-18.38c-10.15,0-18.38,8.23-18.38,18.38"/>
		<path class="st124" d="M176.98,87.47c0-10.15,8.23-18.38,18.38-18.38c10.15,0,18.38,8.23,18.38,18.38
			c0,10.15-8.23,18.38-18.38,18.38C185.21,105.85,176.98,97.62,176.98,87.47l-0.08,0c0,10.2,8.28,18.49,18.49,18.49
			s18.49-8.28,18.49-18.49c0-10.2-8.28-18.49-18.49-18.49s-18.49,8.28-18.49,18.49"/>
		<path class="st125" d="M176.99,87.47c0-10.2,8.28-18.49,18.49-18.49s18.49,8.28,18.49,18.49c0,10.2-8.28,18.49-18.49,18.49
			S176.99,97.68,176.99,87.47l-0.2,0c0,10.26,8.33,18.59,18.59,18.59s18.59-8.33,18.59-18.59c0-10.26-8.33-18.59-18.59-18.59
			s-18.59,8.33-18.59,18.59"/>
		<path class="st126" d="M176.77,87.47c0-10.26,8.33-18.59,18.59-18.59c10.26,0,18.59,8.33,18.59,18.59s-8.33,18.59-18.59,18.59
			C185.1,106.07,176.77,97.74,176.77,87.47l-0.08,0c0,10.32,8.38,18.7,18.7,18.7s18.7-8.38,18.7-18.7c0-10.32-8.38-18.7-18.7-18.7
			s-18.7,8.38-18.7,18.7"/>
		<path class="st127" d="M176.78,87.47c0-10.32,8.38-18.7,18.7-18.7s18.7,8.38,18.7,18.7s-8.38,18.7-18.7,18.7
			S176.78,97.8,176.78,87.47l-0.2,0c0,10.38,8.42,18.81,18.81,18.81s18.81-8.42,18.81-18.81c0-10.38-8.42-18.81-18.81-18.81
			s-18.81,8.42-18.81,18.81"/>
		<path class="st128" d="M176.55,87.47c0-10.38,8.42-18.81,18.81-18.81c10.38,0,18.81,8.42,18.81,18.81
			c0,10.38-8.42,18.81-18.81,18.81C184.98,106.28,176.55,97.85,176.55,87.47l-0.08,0c0,10.44,8.47,18.91,18.91,18.91
			s18.91-8.47,18.91-18.91c0-10.44-8.47-18.91-18.91-18.91s-18.91,8.47-18.91,18.91"/>
		<path class="st129" d="M176.45,87.47c0-10.44,8.47-18.91,18.91-18.91s18.91,8.47,18.91,18.91s-8.47,18.91-18.91,18.91
			S176.45,97.91,176.45,87.47l-0.08,0c0,10.5,8.52,19.02,19.02,19.02s19.02-8.52,19.02-19.02s-8.52-19.02-19.02-19.02
			s-19.02,8.52-19.02,19.02"/>
		<path class="st130" d="M176.34,87.47c0-10.5,8.52-19.02,19.02-19.02c10.5,0,19.02,8.52,19.02,19.02c0,10.5-8.52,19.02-19.02,19.02
			C184.86,106.49,176.34,97.97,176.34,87.47l-0.08,0c0,10.56,8.57,19.12,19.12,19.12s19.12-8.57,19.12-19.12
			c0-10.56-8.57-19.12-19.12-19.12s-19.12,8.57-19.12,19.12"/>
		<path class="st131" d="M176.24,87.47c0-10.56,8.57-19.12,19.12-19.12c10.56,0,19.12,8.57,19.12,19.12
			c0,10.56-8.57,19.12-19.12,19.12C184.8,106.6,176.24,98.03,176.24,87.47l-0.08,0c0,10.62,8.62,19.23,19.23,19.23
			s19.23-8.62,19.23-19.23c0-10.62-8.62-19.23-19.23-19.23s-19.23,8.62-19.23,19.23"/>
		<path class="st131" d="M176.13,87.47c0-10.62,8.62-19.23,19.23-19.23c10.62,0,19.23,8.62,19.23,19.23s-8.62,19.23-19.23,19.23
			C184.74,106.7,176.13,98.09,176.13,87.47l-0.08,0c0,10.67,8.66,19.34,19.34,19.34s19.34-8.66,19.34-19.34
			c0-10.67-8.66-19.34-19.34-19.34s-19.34,8.66-19.34,19.34"/>
		<path class="st132" d="M176.02,87.47c0-10.67,8.66-19.34,19.34-19.34c10.67,0,19.34,8.66,19.34,19.34s-8.66,19.34-19.34,19.34
			C184.69,106.81,176.02,98.15,176.02,87.47l-0.08,0c0,10.73,8.71,19.44,19.44,19.44c10.73,0,19.44-8.71,19.44-19.44
			c0-10.73-8.71-19.44-19.44-19.44c-10.73,0-19.44,8.71-19.44,19.44"/>
		<path class="st133" d="M176.04,87.47c0-10.73,8.71-19.44,19.44-19.44s19.44,8.71,19.44,19.44c0,10.73-8.71,19.44-19.44,19.44
			S176.04,98.21,176.04,87.47l-0.2,0c0,10.79,8.76,19.55,19.55,19.55s19.55-8.76,19.55-19.55c0-10.79-8.76-19.55-19.55-19.55
			s-19.55,8.76-19.55,19.55"/>
		<path class="st134" d="M175.81,87.47c0-10.79,8.76-19.55,19.55-19.55c10.79,0,19.55,8.76,19.55,19.55
			c0,10.79-8.76,19.55-19.55,19.55C184.57,107.02,175.81,98.26,175.81,87.47l-0.08,0c0,10.85,8.81,19.66,19.66,19.66
			s19.66-8.81,19.66-19.66c0-10.85-8.81-19.66-19.66-19.66s-19.66,8.81-19.66,19.66"/>
		<path class="st135" d="M175.7,87.47c0-10.85,8.81-19.66,19.66-19.66c10.85,0,19.66,8.81,19.66,19.66
			c0,10.85-8.81,19.66-19.66,19.66C184.51,107.13,175.7,98.32,175.7,87.47l-0.08,0c0,10.91,8.85,19.76,19.76,19.76
			c10.91,0,19.76-8.85,19.76-19.76c0-10.91-8.85-19.76-19.76-19.76c-10.91,0-19.76,8.85-19.76,19.76"/>
		<path class="st136" d="M175.6,87.47c0-10.91,8.85-19.76,19.76-19.76c10.91,0,19.76,8.85,19.76,19.76
			c0,10.91-8.85,19.76-19.76,19.76C184.45,107.24,175.6,98.38,175.6,87.47l-0.08,0c0,10.97,8.9,19.87,19.87,19.87
			s19.87-8.9,19.87-19.87c0-10.97-8.9-19.87-19.87-19.87s-19.87,8.9-19.87,19.87"/>
		<path class="st137" d="M175.49,87.47c0-10.97,8.9-19.87,19.87-19.87c10.97,0,19.87,8.9,19.87,19.87s-8.9,19.87-19.87,19.87
			C184.39,107.34,175.49,98.44,175.49,87.47l-0.08,0c0,11.03,8.95,19.97,19.97,19.97s19.97-8.95,19.97-19.97
			c0-11.03-8.95-19.97-19.97-19.97s-19.97,8.95-19.97,19.97"/>
		<path class="st138" d="M175.39,87.47c0-11.03,8.95-19.97,19.97-19.97c11.03,0,19.97,8.95,19.97,19.97s-8.95,19.97-19.97,19.97
			C184.33,107.45,175.39,98.5,175.39,87.47l-0.08,0c0,11.08,9,20.08,20.08,20.08s20.08-9,20.08-20.08c0-11.08-9-20.08-20.08-20.08
			s-20.08,9-20.08,20.08"/>
		<path class="st139" d="M175.28,87.47c0-11.08,9-20.08,20.08-20.08c11.08,0,20.08,9,20.08,20.08c0,11.08-9,20.08-20.08,20.08
			C184.28,107.55,175.28,98.56,175.28,87.47l-0.08,0c0,11.14,9.04,20.19,20.19,20.19c11.14,0,20.19-9.04,20.19-20.19
			s-9.04-20.19-20.19-20.19c-11.14,0-20.19,9.04-20.19,20.19"/>
		<path class="st139" d="M175.17,87.47c0-11.14,9.04-20.19,20.19-20.19c11.14,0,20.19,9.04,20.19,20.19
			c0,11.14-9.04,20.19-20.19,20.19C184.22,107.66,175.17,98.62,175.17,87.47l-0.08,0c0,11.2,9.09,20.29,20.29,20.29
			s20.29-9.09,20.29-20.29c0-11.2-9.09-20.29-20.29-20.29s-20.29,9.09-20.29,20.29"/>
		<path class="st140" d="M175.07,87.47c0-11.2,9.09-20.29,20.29-20.29c11.2,0,20.29,9.09,20.29,20.29c0,11.2-9.09,20.29-20.29,20.29
			C184.16,107.77,175.07,98.68,175.07,87.47l-0.08,0c0,11.26,9.14,20.4,20.4,20.4s20.4-9.14,20.4-20.4s-9.14-20.4-20.4-20.4
			s-20.4,9.14-20.4,20.4"/>
		<path class="st141" d="M175.08,87.35c0-11.26,9.14-20.4,20.4-20.4s20.4,9.14,20.4,20.4c0,11.26-9.14,20.4-20.4,20.4
			S175.08,98.61,175.08,87.35l-0.2,0.12c0,11.32,9.19,20.51,20.51,20.51s20.51-9.19,20.51-20.51c0-11.32-9.19-20.51-20.51-20.51
			s-20.51,9.19-20.51,20.51"/>
		<path class="st142" d="M174.85,87.47c0-11.32,9.19-20.51,20.51-20.51c11.32,0,20.51,9.19,20.51,20.51
			c0,11.32-9.19,20.51-20.51,20.51C184.04,107.98,174.85,98.79,174.85,87.47l-0.08,0c0,11.38,9.23,20.61,20.61,20.61
			s20.61-9.23,20.61-20.61c0-11.38-9.23-20.61-20.61-20.61s-20.61,9.23-20.61,20.61"/>
		<path class="st143" d="M174.75,87.47c0-11.38,9.23-20.61,20.61-20.61c11.38,0,20.61,9.23,20.61,20.61
			c0,11.38-9.23,20.61-20.61,20.61C183.98,108.08,174.75,98.85,174.75,87.47l-0.08,0c0,11.44,9.28,20.72,20.72,20.72
			s20.72-9.28,20.72-20.72c0-11.44-9.28-20.72-20.72-20.72s-20.72,9.28-20.72,20.72"/>
		<path class="st144" d="M174.64,87.47c0-11.44,9.28-20.72,20.72-20.72c11.44,0,20.72,9.28,20.72,20.72s-9.28,20.72-20.72,20.72
			C183.92,108.19,174.64,98.91,174.64,87.47l-0.08,0c0,11.49,9.33,20.82,20.82,20.82s20.82-9.33,20.82-20.82
			s-9.33-20.82-20.82-20.82s-20.82,9.33-20.82,20.82"/>
		<path class="st144" d="M174.54,87.47c0-11.49,9.33-20.82,20.82-20.82c11.49,0,20.82,9.33,20.82,20.82s-9.33,20.82-20.82,20.82
			C183.87,108.3,174.54,98.97,174.54,87.47l-0.08,0c0,11.55,9.38,20.93,20.93,20.93s20.93-9.38,20.93-20.93s-9.38-20.93-20.93-20.93
			s-20.93,9.38-20.93,20.93"/>
		<path class="st145" d="M174.43,87.47c0-11.55,9.38-20.93,20.93-20.93c11.55,0,20.93,9.38,20.93,20.93s-9.38,20.93-20.93,20.93
			C183.81,108.4,174.43,99.03,174.43,87.47l-0.08,0c0,11.61,9.42,21.04,21.04,21.04s21.04-9.42,21.04-21.04
			c0-11.61-9.42-21.04-21.04-21.04s-21.04,9.42-21.04,21.04"/>
		<path class="st146" d="M174.32,87.47c0-11.61,9.42-21.04,21.04-21.04s21.04,9.42,21.04,21.04c0,11.61-9.42,21.04-21.04,21.04
			S174.32,99.09,174.32,87.47l-0.08,0c0,11.67,9.47,21.14,21.14,21.14s21.14-9.47,21.14-21.14c0-11.67-9.47-21.14-21.14-21.14
			s-21.14,9.47-21.14,21.14"/>
		<path class="st147" d="M174.34,87.47c0-11.67,9.47-21.14,21.14-21.14s21.14,9.47,21.14,21.14s-9.47,21.14-21.14,21.14
			S174.34,99.14,174.34,87.47l-0.2,0c0,11.73,9.52,21.25,21.25,21.25s21.25-9.52,21.25-21.25c0-11.73-9.52-21.25-21.25-21.25
			s-21.25,9.52-21.25,21.25"/>
		<path class="st148" d="M174.11,87.47c0-11.73,9.52-21.25,21.25-21.25c11.73,0,21.25,9.52,21.25,21.25s-9.52,21.25-21.25,21.25
			C183.63,108.72,174.11,99.2,174.11,87.47l-0.08,0c0,11.79,9.57,21.36,21.36,21.36s21.36-9.57,21.36-21.36
			c0-11.79-9.57-21.36-21.36-21.36s-21.36,9.57-21.36,21.36"/>
		<path class="st149" d="M174.12,87.47c0-11.79,9.57-21.36,21.36-21.36s21.36,9.57,21.36,21.36c0,11.79-9.57,21.36-21.36,21.36
			S174.12,99.26,174.12,87.47l-0.2,0c0,11.85,9.61,21.46,21.46,21.46s21.46-9.61,21.46-21.46c0-11.85-9.61-21.46-21.46-21.46
			s-21.46,9.61-21.46,21.46"/>
		<path class="st149" d="M173.9,87.47c0-11.85,9.61-21.46,21.46-21.46c11.85,0,21.46,9.61,21.46,21.46
			c0,11.85-9.61,21.46-21.46,21.46C183.51,108.93,173.9,99.32,173.9,87.47l-0.08,0c0,11.91,9.66,21.57,21.57,21.57
			c11.91,0,21.57-9.66,21.57-21.57c0-11.91-9.66-21.57-21.57-21.57c-11.91,0-21.57,9.66-21.57,21.57"/>
		<path class="st150" d="M173.79,87.47c0-11.91,9.66-21.57,21.57-21.57c11.91,0,21.57,9.66,21.57,21.57
			c0,11.91-9.66,21.57-21.57,21.57C183.45,109.04,173.79,99.38,173.79,87.47l-0.08,0c0,11.96,9.71,21.67,21.67,21.67
			s21.67-9.71,21.67-21.67s-9.71-21.67-21.67-21.67s-21.67,9.71-21.67,21.67"/>
		<path class="st151" d="M173.69,87.47c0-11.96,9.71-21.67,21.67-21.67c11.96,0,21.67,9.71,21.67,21.67
			c0,11.96-9.71,21.67-21.67,21.67C183.4,109.15,173.69,99.44,173.69,87.47l-0.08,0c0,12.02,9.76,21.78,21.78,21.78
			s21.78-9.76,21.78-21.78s-9.76-21.78-21.78-21.78s-21.78,9.76-21.78,21.78"/>
		<path class="st152" d="M173.58,87.47c0-12.02,9.76-21.78,21.78-21.78c12.02,0,21.78,9.76,21.78,21.78s-9.76,21.78-21.78,21.78
			C183.34,109.25,173.58,99.5,173.58,87.47l-0.08,0c0,12.08,9.81,21.89,21.89,21.89s21.89-9.81,21.89-21.89
			c0-12.08-9.81-21.89-21.89-21.89s-21.89,9.81-21.89,21.89"/>
		<path class="st153" d="M173.47,87.47c0-12.08,9.81-21.89,21.89-21.89c12.08,0,21.89,9.81,21.89,21.89
			c0,12.08-9.81,21.89-21.89,21.89C183.28,109.36,173.47,99.55,173.47,87.47l-0.08,0c0,12.14,9.85,21.99,21.99,21.99
			c12.14,0,21.99-9.85,21.99-21.99c0-12.14-9.85-21.99-21.99-21.99c-12.14,0-21.99,9.85-21.99,21.99"/>
		<path class="st154" d="M173.37,87.47c0-12.14,9.85-21.99,21.99-21.99c12.14,0,21.99,9.85,21.99,21.99
			c0,12.14-9.85,21.99-21.99,21.99C183.22,109.47,173.37,99.61,173.37,87.47l-0.08,0c0,12.2,9.9,22.1,22.1,22.1s22.1-9.9,22.1-22.1
			s-9.9-22.1-22.1-22.1s-22.1,9.9-22.1,22.1"/>
		<path class="st155" d="M173.38,87.47c0-12.2,9.9-22.1,22.1-22.1s22.1,9.9,22.1,22.1s-9.9,22.1-22.1,22.1
			S173.38,99.67,173.38,87.47l-0.2,0c0,12.26,9.95,22.21,22.21,22.21s22.21-9.95,22.21-22.21s-9.95-22.21-22.21-22.21
			s-22.21,9.95-22.21,22.21"/>
		<path class="st156" d="M173.15,87.47c0-12.26,9.95-22.21,22.21-22.21c12.26,0,22.21,9.95,22.21,22.21s-9.95,22.21-22.21,22.21
			C183.1,109.68,173.15,99.73,173.15,87.47l-0.08,0c0,12.32,10,22.31,22.31,22.31c12.32,0,22.31-10,22.31-22.31
			c0-12.32-10-22.31-22.31-22.31c-12.32,0-22.31,10-22.31,22.31"/>
		<path class="st157" d="M173.17,87.47c0-12.32,10-22.31,22.31-22.31s22.31,10,22.31,22.31c0,12.32-10,22.31-22.31,22.31
			S173.17,99.79,173.17,87.47l-0.2,0c0,12.37,10.04,22.42,22.42,22.42s22.42-10.04,22.42-22.42c0-12.37-10.04-22.42-22.42-22.42
			s-22.42,10.04-22.42,22.42"/>
		<path class="st158" d="M172.94,87.47c0-12.37,10.04-22.42,22.42-22.42c12.37,0,22.42,10.04,22.42,22.42
			c0,12.37-10.04,22.42-22.42,22.42C182.99,109.89,172.94,99.85,172.94,87.47l-0.08,0c0,12.43,10.09,22.52,22.52,22.52
			c12.43,0,22.52-10.09,22.52-22.52c0-12.43-10.09-22.52-22.52-22.52c-12.43,0-22.52,10.09-22.52,22.52"/>
		<path class="st159" d="M172.84,87.47c0-12.43,10.09-22.52,22.52-22.52s22.52,10.09,22.52,22.52c0,12.43-10.09,22.52-22.52,22.52
			S172.84,99.91,172.84,87.47l-0.08,0c0,12.49,10.14,22.63,22.63,22.63s22.63-10.14,22.63-22.63c0-12.49-10.14-22.63-22.63-22.63
			s-22.63,10.14-22.63,22.63"/>
		<path class="st160" d="M172.73,87.47c0-12.49,10.14-22.63,22.63-22.63c12.49,0,22.63,10.14,22.63,22.63
			c0,12.49-10.14,22.63-22.63,22.63C182.87,110.1,172.73,99.97,172.73,87.47l-0.08,0c0,12.55,10.19,22.74,22.74,22.74
			s22.74-10.19,22.74-22.74c0-12.55-10.19-22.74-22.74-22.74s-22.74,10.19-22.74,22.74"/>
		<path class="st160" d="M172.62,87.47c0-12.55,10.19-22.74,22.74-22.74c12.55,0,22.74,10.19,22.74,22.74
			c0,12.55-10.19,22.74-22.74,22.74C182.81,110.21,172.62,100.02,172.62,87.47l-0.08,0c0,12.61,10.23,22.84,22.84,22.84
			c12.61,0,22.84-10.23,22.84-22.84c0-12.61-10.23-22.84-22.84-22.84c-12.61,0-22.84,10.23-22.84,22.84"/>
		<path class="st161" d="M172.52,87.47c0-12.61,10.23-22.84,22.84-22.84s22.84,10.23,22.84,22.84c0,12.61-10.23,22.84-22.84,22.84
			S172.52,100.08,172.52,87.47l-0.08,0c0,12.67,10.28,22.95,22.95,22.95s22.95-10.28,22.95-22.95s-10.28-22.95-22.95-22.95
			s-22.95,10.28-22.95,22.95"/>
		<path class="st162" d="M172.41,87.47c0-12.67,10.28-22.95,22.95-22.95c12.67,0,22.95,10.28,22.95,22.95
			c0,12.67-10.28,22.95-22.95,22.95C182.69,110.42,172.41,100.14,172.41,87.47l-0.08,0c0,12.73,10.33,23.06,23.06,23.06
			s23.06-10.33,23.06-23.06s-10.33-23.06-23.06-23.06s-23.06,10.33-23.06,23.06"/>
		<path class="st163" d="M172.42,87.47c0-12.73,10.33-23.06,23.06-23.06s23.06,10.33,23.06,23.06s-10.33,23.06-23.06,23.06
			S172.42,100.2,172.42,87.47l-0.2,0c0,12.79,10.38,23.16,23.16,23.16s23.16-10.38,23.16-23.16s-10.38-23.16-23.16-23.16
			s-23.16,10.38-23.16,23.16"/>
		<path class="st164" d="M172.2,87.47c0-12.79,10.38-23.16,23.16-23.16c12.79,0,23.16,10.38,23.16,23.16
			c0,12.79-10.38,23.16-23.16,23.16C182.57,110.63,172.2,100.26,172.2,87.47l-0.08,0c0,12.84,10.42,23.27,23.27,23.27
			s23.27-10.42,23.27-23.27c0-12.84-10.42-23.27-23.27-23.27s-23.27,10.42-23.27,23.27"/>
		<path class="st165" d="M172.21,87.47c0-12.84,10.42-23.27,23.27-23.27s23.27,10.42,23.27,23.27c0,12.84-10.42,23.27-23.27,23.27
			S172.21,100.32,172.21,87.47l-0.2,0c0,12.9,10.47,23.37,23.37,23.37c12.9,0,23.37-10.47,23.37-23.37S208.29,64.1,195.38,64.1
			c-12.9,0-23.37,10.47-23.37,23.37"/>
		<path class="st166" d="M171.99,87.47c0-12.9,10.47-23.37,23.37-23.37c12.9,0,23.37,10.47,23.37,23.37
			c0,12.9-10.47,23.37-23.37,23.37C182.46,110.85,171.99,100.38,171.99,87.47l-0.08,0c0,12.96,10.52,23.48,23.48,23.48
			s23.48-10.52,23.48-23.48c0-12.96-10.52-23.48-23.48-23.48S171.9,74.51,171.9,87.47"/>
		<path class="st167" d="M171.88,87.47c0-12.96,10.52-23.48,23.48-23.48c12.96,0,23.48,10.52,23.48,23.48
			c0,12.96-10.52,23.48-23.48,23.48C182.4,110.95,171.88,100.43,171.88,87.47l-0.08,0c0,13.02,10.57,23.59,23.59,23.59
			s23.59-10.57,23.59-23.59c0-13.02-10.57-23.59-23.59-23.59S171.8,74.45,171.8,87.47"/>
		<path class="st168" d="M171.77,87.47c0-13.02,10.57-23.59,23.59-23.59c13.02,0,23.59,10.57,23.59,23.59
			c0,13.02-10.57,23.59-23.59,23.59C182.34,111.06,171.77,100.49,171.77,87.47l-0.08,0c0,13.08,10.61,23.69,23.69,23.69
			s23.69-10.61,23.69-23.69c0-13.08-10.61-23.69-23.69-23.69s-23.69,10.61-23.69,23.69"/>
		<path class="st169" d="M171.67,87.47c0-13.08,10.61-23.69,23.69-23.69c13.08,0,23.69,10.61,23.69,23.69
			c0,13.08-10.61,23.69-23.69,23.69C182.28,111.17,171.67,100.55,171.67,87.47l-0.08,0c0,13.14,10.66,23.8,23.8,23.8
			c13.14,0,23.8-10.66,23.8-23.8c0-13.14-10.66-23.8-23.8-23.8c-13.14,0-23.8,10.66-23.8,23.8"/>
		<path class="st170" d="M171.56,87.47c0-13.14,10.66-23.8,23.8-23.8c13.14,0,23.8,10.66,23.8,23.8s-10.66,23.8-23.8,23.8
			C182.22,111.27,171.56,100.61,171.56,87.47l-0.08,0c0,13.2,10.71,23.91,23.91,23.91s23.91-10.71,23.91-23.91
			c0-13.2-10.71-23.91-23.91-23.91s-23.91,10.71-23.91,23.91"/>
		<path class="st171" d="M171.45,87.47c0-13.2,10.71-23.91,23.91-23.91c13.2,0,23.91,10.71,23.91,23.91s-10.71,23.91-23.91,23.91
			C182.16,111.38,171.45,100.67,171.45,87.47l-0.08,0c0,13.25,10.76,24.01,24.01,24.01s24.01-10.76,24.01-24.01
			s-10.76-24.01-24.01-24.01s-24.01,10.76-24.01,24.01"/>
		<path class="st172" d="M171.47,87.47c0-13.25,10.76-24.01,24.01-24.01s24.01,10.76,24.01,24.01c0,13.25-10.76,24.01-24.01,24.01
			S171.47,100.73,171.47,87.47l-0.2,0c0,13.31,10.8,24.12,24.12,24.12s24.12-10.8,24.12-24.12c0-13.31-10.8-24.12-24.12-24.12
			s-24.12,10.8-24.12,24.12"/>
		<path class="st173" d="M171.24,87.47c0-13.31,10.8-24.12,24.12-24.12c13.31,0,24.12,10.8,24.12,24.12
			c0,13.31-10.8,24.12-24.12,24.12C182.05,111.59,171.24,100.79,171.24,87.47l-0.08,0c0,13.37,10.85,24.22,24.22,24.22
			s24.22-10.85,24.22-24.22s-10.85-24.22-24.22-24.22s-24.22,10.85-24.22,24.22"/>
		<path class="st174" d="M171.26,87.47c0-13.37,10.85-24.22,24.22-24.22S219.7,74.1,219.7,87.47c0,13.37-10.85,24.22-24.22,24.22
			S171.26,100.85,171.26,87.47l-0.2,0c0,13.43,10.9,24.33,24.33,24.33s24.33-10.9,24.33-24.33s-10.9-24.33-24.33-24.33
			s-24.33,10.9-24.33,24.33"/>
		<path class="st175" d="M171.03,87.47c0-13.43,10.9-24.33,24.33-24.33c13.43,0,24.33,10.9,24.33,24.33s-10.9,24.33-24.33,24.33
			C181.93,111.8,171.03,100.9,171.03,87.47l-0.08,0c0,13.49,10.95,24.44,24.44,24.44s24.44-10.95,24.44-24.44
			c0-13.49-10.95-24.44-24.44-24.44s-24.44,10.95-24.44,24.44"/>
		<path class="st176" d="M170.92,87.47c0-13.49,10.95-24.44,24.44-24.44c13.49,0,24.44,10.95,24.44,24.44
			c0,13.49-10.95,24.44-24.44,24.44C181.87,111.91,170.92,100.96,170.92,87.47l-0.08,0c0,13.55,11,24.54,24.54,24.54
			c13.55,0,24.54-11,24.54-24.54c0-13.55-11-24.54-24.54-24.54c-13.55,0-24.54,11-24.54,24.54"/>
		<path class="st177" d="M170.82,87.47c0-13.55,11-24.54,24.54-24.54c13.55,0,24.54,11,24.54,24.54c0,13.55-11,24.54-24.54,24.54
			C181.81,112.02,170.82,101.02,170.82,87.47l-0.08,0c0,13.61,11.04,24.65,24.65,24.65s24.65-11.04,24.65-24.65
			c0-13.61-11.04-24.65-24.65-24.65s-24.65,11.04-24.65,24.65"/>
		<path class="st178" d="M170.71,87.47c0-13.61,11.04-24.65,24.65-24.65s24.65,11.04,24.65,24.65c0,13.61-11.04,24.65-24.65,24.65
			S170.71,101.08,170.71,87.47l-0.08,0c0,13.66,11.09,24.76,24.76,24.76s24.76-11.09,24.76-24.76s-11.09-24.76-24.76-24.76
			s-24.76,11.09-24.76,24.76"/>
		<path class="st179" d="M170.6,87.47c0-13.66,11.09-24.76,24.76-24.76c13.66,0,24.76,11.09,24.76,24.76
			c0,13.66-11.09,24.76-24.76,24.76C181.7,112.23,170.6,101.14,170.6,87.47l-0.08,0c0,13.72,11.14,24.86,24.86,24.86
			s24.86-11.14,24.86-24.86c0-13.72-11.14-24.86-24.86-24.86s-24.86,11.14-24.86,24.86"/>
		<path class="st180" d="M170.5,87.47c0-13.72,11.14-24.86,24.86-24.86c13.72,0,24.86,11.14,24.86,24.86
			c0,13.72-11.14,24.86-24.86,24.86C181.64,112.33,170.5,101.2,170.5,87.47l-0.08,0c0,13.78,11.19,24.97,24.97,24.97
			s24.97-11.19,24.97-24.97c0-13.78-11.19-24.97-24.97-24.97s-24.97,11.19-24.97,24.97"/>
		<path class="st181" d="M170.51,87.47c0-13.78,11.19-24.97,24.97-24.97s24.97,11.19,24.97,24.97c0,13.78-11.19,24.97-24.97,24.97
			S170.51,101.26,170.51,87.47l-0.2,0c0,13.84,11.23,25.07,25.07,25.07c13.84,0,25.07-11.23,25.07-25.07
			c0-13.84-11.23-25.07-25.07-25.07c-13.84,0-25.07,11.23-25.07,25.07"/>
		<path class="st182" d="M170.29,87.47c0-13.84,11.23-25.07,25.07-25.07c13.84,0,25.07,11.23,25.07,25.07s-11.23,25.07-25.07,25.07
			C181.52,112.55,170.29,101.31,170.29,87.47l-0.08,0c0,13.9,11.28,25.18,25.18,25.18s25.18-11.28,25.18-25.18
			c0-13.9-11.28-25.18-25.18-25.18S170.2,73.57,170.2,87.47"/>
		<path class="st183" d="M170.3,87.47c0-13.9,11.28-25.18,25.18-25.18s25.18,11.28,25.18,25.18s-11.28,25.18-25.18,25.18
			S170.3,101.37,170.3,87.47l-0.2,0c0,13.96,11.33,25.29,25.29,25.29s25.29-11.33,25.29-25.29s-11.33-25.29-25.29-25.29
			S170.1,73.51,170.1,87.47"/>
		<path class="st184" d="M170.07,87.47c0-13.96,11.33-25.29,25.29-25.29c13.96,0,25.29,11.33,25.29,25.29s-11.33,25.29-25.29,25.29
			C181.4,112.76,170.07,101.43,170.07,87.47l-0.08,0c0,14.02,11.38,25.39,25.39,25.39c14.02,0,25.39-11.38,25.39-25.39
			c0-14.02-11.38-25.39-25.39-25.39c-14.02,0-25.39,11.38-25.39,25.39"/>
		<path class="st185" d="M169.97,87.47c0-14.02,11.38-25.39,25.39-25.39c14.02,0,25.39,11.38,25.39,25.39
			c0,14.02-11.38,25.39-25.39,25.39C181.34,112.87,169.97,101.49,169.97,87.47l-0.08,0c0,14.08,11.42,25.5,25.5,25.5
			s25.5-11.42,25.5-25.5c0-14.08-11.42-25.5-25.5-25.5s-25.5,11.42-25.5,25.5"/>
		<path class="st186" d="M169.86,87.47c0-14.08,11.42-25.5,25.5-25.5c14.08,0,25.5,11.42,25.5,25.5c0,14.08-11.42,25.5-25.5,25.5
			C181.28,112.97,169.86,101.55,169.86,87.47l-0.08,0c0,14.13,11.47,25.61,25.61,25.61c14.13,0,25.61-11.47,25.61-25.61
			c0-14.13-11.47-25.61-25.61-25.61c-14.13,0-25.61,11.47-25.61,25.61"/>
		<path class="st187" d="M169.75,87.47c0-14.13,11.47-25.61,25.61-25.61c14.13,0,25.61,11.47,25.61,25.61s-11.47,25.61-25.61,25.61
			C181.23,113.08,169.75,101.61,169.75,87.47l-0.08,0c0,14.19,11.52,25.71,25.71,25.71s25.71-11.52,25.71-25.71
			c0-14.19-11.52-25.71-25.71-25.71s-25.71,11.52-25.71,25.71"/>
		<path class="st188" d="M169.65,87.47c0-14.19,11.52-25.71,25.71-25.71c14.19,0,25.71,11.52,25.71,25.71
			c0,14.19-11.52,25.71-25.71,25.71C181.17,113.18,169.65,101.67,169.65,87.47l-0.08,0c0,14.25,11.57,25.82,25.82,25.82
			s25.82-11.57,25.82-25.82c0-14.25-11.57-25.82-25.82-25.82s-25.82,11.57-25.82,25.82"/>
		<path class="st189" d="M169.54,87.47c0-14.25,11.57-25.82,25.82-25.82c14.25,0,25.82,11.57,25.82,25.82
			c0,14.25-11.57,25.82-25.82,25.82C181.11,113.29,169.54,101.72,169.54,87.47l-0.08,0c0,14.31,11.61,25.92,25.92,25.92
			c14.31,0,25.92-11.61,25.92-25.92c0-14.31-11.61-25.92-25.92-25.92c-14.31,0-25.92,11.61-25.92,25.92"/>
		<path class="st190" d="M169.56,87.47c0-14.31,11.61-25.92,25.92-25.92s25.92,11.61,25.92,25.92c0,14.31-11.61,25.92-25.92,25.92
			S169.56,101.78,169.56,87.47l-0.2,0c0,14.37,11.66,26.03,26.03,26.03s26.03-11.66,26.03-26.03s-11.66-26.03-26.03-26.03
			s-26.03,11.66-26.03,26.03"/>
		<path class="st191" d="M169.33,87.47c0-14.37,11.66-26.03,26.03-26.03c14.37,0,26.03,11.66,26.03,26.03
			c0,14.37-11.66,26.03-26.03,26.03C180.99,113.5,169.33,101.84,169.33,87.47l-0.08,0c0,14.43,11.71,26.14,26.14,26.14
			s26.14-11.71,26.14-26.14s-11.71-26.14-26.14-26.14s-26.14,11.71-26.14,26.14"/>
		<path class="st192" d="M169.22,87.47c0-14.43,11.71-26.14,26.14-26.14c14.43,0,26.14,11.71,26.14,26.14
			c0,14.43-11.71,26.14-26.14,26.14C180.93,113.61,169.22,101.9,169.22,87.47l-0.08,0c0,14.49,11.76,26.24,26.24,26.24
			s26.24-11.76,26.24-26.24c0-14.49-11.76-26.24-26.24-26.24s-26.24,11.76-26.24,26.24"/>
		<path class="st193" d="M169.12,87.47c0-14.49,11.76-26.24,26.24-26.24c14.49,0,26.24,11.76,26.24,26.24
			c0,14.49-11.76,26.24-26.24,26.24C180.87,113.72,169.12,101.96,169.12,87.47l-0.08,0c0,14.54,11.8,26.35,26.35,26.35
			s26.35-11.8,26.35-26.35c0-14.54-11.8-26.35-26.35-26.35s-26.35,11.8-26.35,26.35"/>
		<path class="st194" d="M169.01,87.47c0-14.54,11.8-26.35,26.35-26.35c14.54,0,26.35,11.8,26.35,26.35
			c0,14.54-11.8,26.35-26.35,26.35C180.82,113.82,169.01,102.02,169.01,87.47l-0.08,0c0,14.6,11.85,26.46,26.46,26.46
			s26.46-11.85,26.46-26.46c0-14.6-11.85-26.46-26.46-26.46s-26.46,11.85-26.46,26.46"/>
		<path class="st195" d="M168.9,87.47c0-14.6,11.85-26.46,26.46-26.46c14.6,0,26.46,11.85,26.46,26.46s-11.85,26.46-26.46,26.46
			C180.76,113.93,168.9,102.08,168.9,87.47l-0.08,0c0,14.66,11.9,26.56,26.56,26.56s26.56-11.9,26.56-26.56s-11.9-26.56-26.56-26.56
			s-26.56,11.9-26.56,26.56"/>
		<path class="st195" d="M168.8,87.47c0-14.66,11.9-26.56,26.56-26.56c14.66,0,26.56,11.9,26.56,26.56s-11.9,26.56-26.56,26.56
			C180.7,114.03,168.8,102.14,168.8,87.47l-0.08,0c0,14.72,11.95,26.67,26.67,26.67s26.67-11.95,26.67-26.67
			c0-14.72-11.95-26.67-26.67-26.67s-26.67,11.95-26.67,26.67"/>
		<path class="st196" d="M168.69,87.47c0-14.72,11.95-26.67,26.67-26.67c14.72,0,26.67,11.95,26.67,26.67
			c0,14.72-11.95,26.67-26.67,26.67C180.64,114.14,168.69,102.19,168.69,87.47l-0.08,0c0,14.78,11.99,26.77,26.77,26.77
			s26.77-11.99,26.77-26.77c0-14.78-11.99-26.77-26.77-26.77s-26.77,11.99-26.77,26.77"/>
		<path class="st197" d="M168.59,87.47c0-14.78,11.99-26.77,26.77-26.77c14.78,0,26.77,11.99,26.77,26.77
			c0,14.78-11.99,26.77-26.77,26.77C180.58,114.25,168.59,102.25,168.59,87.47l-0.08,0c0,14.84,12.04,26.88,26.88,26.88
			s26.88-12.04,26.88-26.88c0-14.84-12.04-26.88-26.88-26.88S168.5,72.63,168.5,87.47"/>
		<path class="st198" d="M168.6,87.35c0-14.84,12.04-26.88,26.88-26.88s26.88,12.04,26.88,26.88c0,14.84-12.04,26.88-26.88,26.88
			S168.6,102.19,168.6,87.35l-0.2,0.12c0,14.9,12.09,26.99,26.99,26.99s26.99-12.09,26.99-26.99c0-14.9-12.09-26.99-26.99-26.99
			S168.4,72.58,168.4,87.47"/>
		<path class="st199" d="M168.37,87.47c0-14.9,12.09-26.99,26.99-26.99c14.9,0,26.99,12.09,26.99,26.99
			c0,14.9-12.09,26.99-26.99,26.99C180.46,114.46,168.37,102.37,168.37,87.47l-0.08,0c0,14.96,12.14,27.09,27.09,27.09
			s27.09-12.14,27.09-27.09c0-14.96-12.14-27.09-27.09-27.09s-27.09,12.14-27.09,27.09"/>
		<path class="st199" d="M168.27,87.47c0-14.96,12.14-27.09,27.09-27.09c14.96,0,27.09,12.14,27.09,27.09
			c0,14.96-12.14,27.09-27.09,27.09C180.4,114.57,168.27,102.43,168.27,87.47l-0.08,0c0,15.01,12.19,27.2,27.2,27.2
			c15.01,0,27.2-12.19,27.2-27.2c0-15.01-12.19-27.2-27.2-27.2c-15.01,0-27.2,12.19-27.2,27.2"/>
		<path class="st199" d="M168.16,87.47c0,15.01,12.19,27.2,27.2,27.2s27.2-12.19,27.2-27.2c0-15.01-12.19-27.2-27.2-27.2
			S168.16,72.46,168.16,87.47 M222.89,114.67h-55.01v-54.4h55.01V114.67"/>
	</g>
	<path class="st200" d="M50.83,100.34c-3.18,2.87-7.28,4.11-13.8,4.11h-2.71V70.3h2.71c6.51,0,10.46,1.16,13.8,4.18
		c3.48,3.1,5.56,7.89,5.56,12.85C56.39,92.29,54.32,97.25,50.83,100.34L50.83,100.34z M39.06,61.55H24.25v51.65h14.73
		c7.82,0,13.47-1.85,18.43-5.96c5.88-4.88,9.37-12.24,9.37-19.84C66.78,72.15,55.39,61.55,39.06,61.55"/>
	<polyline class="st200" points="71.43,113.2 81.49,113.2 81.49,61.55 71.43,61.55 71.43,113.2 	"/>
	<path class="st200" d="M106.13,81.36c-6.05-2.24-7.83-3.72-7.83-6.5c0-3.25,3.17-5.73,7.51-5.73c3.02,0,5.5,1.24,8.14,4.17
		l5.26-6.88c-4.34-3.8-9.52-5.74-15.18-5.74c-9.13,0-16.1,6.35-16.1,14.79c0,7.13,3.25,10.77,12.7,14.18
		c3.95,1.39,5.96,2.31,6.97,2.94c2.01,1.32,3.02,3.17,3.02,5.34c0,4.19-3.33,7.28-7.83,7.28c-4.8,0-8.67-2.4-10.99-6.89l-6.5,6.28
		c4.64,6.8,10.21,9.83,17.89,9.83c10.45,0,17.81-6.98,17.81-16.97C120.99,89.27,117.59,85.55,106.13,81.36"/>
	<path class="st200" d="M124.16,87.4c0,15.2,11.93,26.96,27.27,26.96c4.34,0,8.05-0.86,12.63-3.02V99.49
		c-4.03,4.03-7.6,5.65-12.17,5.65c-10.14,0-17.35-7.36-17.35-17.82c0-9.91,7.43-17.73,16.89-17.73c4.79,0,8.44,1.7,12.63,5.81V63.55
		c-4.41-2.24-8.06-3.16-12.4-3.16C136.4,60.39,124.16,72.39,124.16,87.4"/>
	<polyline class="st200" points="245.68,96.24 231.89,61.55 220.9,61.55 242.82,114.52 248.24,114.52 270.55,61.55 259.63,61.55 
		245.68,96.24 	"/>
	<polyline class="st200" points="275.13,113.2 303.7,113.2 303.7,104.45 285.19,104.45 285.19,90.5 302.99,90.5 302.99,81.76 
		285.19,81.76 285.19,70.3 303.7,70.3 303.7,61.55 275.13,61.55 275.13,113.2 	"/>
	<path class="st200" d="M323.36,85.32h-2.93V69.67h3.09c6.29,0,9.69,2.64,9.69,7.67C333.21,82.52,329.81,85.32,323.36,85.32
		L323.36,85.32z M343.58,76.79c0-9.68-6.65-15.24-18.28-15.24h-14.95v51.65h10.08V92.44h1.32l13.93,20.76h12.39L331.8,91.44
		C339.4,89.89,343.58,84.7,343.58,76.79"/>
	<path class="st1" d="M348.78,66.02h-0.2v-1.18h0.21c0.54,0,0.81,0.19,0.81,0.58C349.6,65.81,349.32,66.02,348.78,66.02
		L348.78,66.02z M350.68,65.4c0-0.9-0.6-1.4-1.71-1.4h-1.47v4.55h1.08v-1.77l1.27,1.77h1.35l-1.51-1.88
		C350.33,66.5,350.68,66.03,350.68,65.4"/>
	<path class="st1" d="M349.18,69.53c-1.76,0-3.18-1.45-3.18-3.25c0-1.82,1.41-3.26,3.18-3.26c1.71,0,3.13,1.47,3.13,3.26
		C352.31,68.06,350.89,69.53,349.18,69.53L349.18,69.53z M349.18,62.29c-2.2,0-3.97,1.77-3.97,3.97c0,2.2,1.78,3.98,3.97,3.98
		c2.16,0,3.92-1.79,3.92-3.98C353.11,64.08,351.34,62.29,349.18,62.29"/>
	<polyline class="st1" points="114.54,126.77 128.01,140.89 128.01,127.51 129.94,127.51 129.94,145.56 116.46,131.48 
		116.46,144.79 114.54,144.79 114.54,126.77 	"/>
	<path class="st1" d="M114.72,127.22c0.6,0.62,13.48,14.12,13.48,14.12s0-13.31,0-13.66c0.26,0,1.29,0,1.56,0
		c0,0.35,0,16.59,0,17.44c-0.6-0.63-13.47-14.1-13.47-14.1s0,13.24,0,13.59c-0.27,0-1.31,0-1.57,0
		C114.72,144.26,114.72,128.06,114.72,127.22L114.72,127.22z M114.36,126.77v18.2h2.28c0,0,0-12.21,0-13.05
		c0.59,0.62,13.47,14.09,13.47,14.09v-18.68h-2.28c0,0,0,12.27,0,13.11c-0.59-0.63-13.47-14.12-13.47-14.12V126.77"/>
	<polyline class="st1" points="139.27,127.51 148.23,127.51 148.23,129.29 141.19,129.29 141.19,134.43 148.02,134.43 
		148.02,136.22 141.19,136.22 141.19,143 148.23,143 148.23,144.79 139.27,144.79 139.27,127.51 	"/>
	<path class="st1" d="M148.05,127.68c0,0.26,0,1.18,0,1.43c-0.35,0-7.04,0-7.04,0v5.5c0,0,6.49,0,6.83,0c0,0.25,0,1.16,0,1.43
		c-0.34,0-6.83,0-6.83,0v7.14c0,0,6.69,0,7.04,0c0,0.26,0,1.17,0,1.43c-0.34,0-8.26,0-8.6,0c0-0.34,0-16.57,0-16.93
		C139.79,127.68,147.71,127.68,148.05,127.68L148.05,127.68z M148.23,127.33h-9.14v17.64h9.32v-2.15c0,0-6.69,0-7.03,0
		c0-0.33,0-6.09,0-6.43c0.34,0,6.82,0,6.82,0v-2.13c0,0-6.48,0-6.82,0c0-0.33,0-4.46,0-4.77c0.34,0,7.03,0,7.03,0v-2.16H148.23"/>
	<polyline class="st1" points="161.82,144.79 159.9,144.79 159.9,129.29 155.73,129.29 155.73,127.51 166.04,127.51 166.04,129.29 
		161.82,129.29 161.82,144.79 	"/>
	<path class="st1" d="M165.86,127.68c0,0.26,0,1.18,0,1.43c-0.32,0-4.22,0-4.22,0s0,15.15,0,15.5c-0.27,0-1.3,0-1.57,0
		c0-0.35,0-15.5,0-15.5s-3.84,0-4.17,0c0-0.25,0-1.17,0-1.43C156.24,127.68,165.52,127.68,165.86,127.68L165.86,127.68z
		 M166.04,127.33h-10.5v2.16c0,0,3.85,0,4.18,0c0,0.34,0,15.49,0,15.49H162c0,0,0-15.14,0-15.49c0.33,0,4.22,0,4.22,0v-2.16H166.04"
		/>
	<polyline class="st1" points="178.91,140.46 184.51,126.61 190.1,140.46 194.64,127.51 196.73,127.51 190.1,145.68 184.51,131.76 
		178.91,145.68 172.3,127.51 174.38,127.51 178.91,140.46 	"/>
	<path class="st1" d="M179.08,140.52c0,0,5.11-12.65,5.43-13.42c0.31,0.77,5.6,13.87,5.6,13.87s4.57-13.05,4.66-13.29
		c0.2,0,1.33,0,1.7,0c-0.16,0.46-6.07,16.66-6.38,17.5c-0.33-0.82-5.58-13.89-5.58-13.89s-5.26,13.07-5.59,13.89
		c-0.3-0.84-6.2-17.04-6.37-17.5c0.36,0,1.5,0,1.7,0c0.08,0.24,4.65,13.29,4.65,13.29L179.08,140.52L179.08,140.52z M184.35,126.54
		c0,0-5.09,12.57-5.42,13.4c-0.29-0.84-4.42-12.62-4.42-12.62h-2.47l6.88,18.87c0,0,5.28-13.15,5.59-13.94
		c0.31,0.79,5.6,13.94,5.6,13.94l6.88-18.87h-2.47c0,0-4.13,11.78-4.42,12.62c-0.34-0.83-5.58-13.82-5.58-13.82L184.35,126.54"/>
	<path class="st1" d="M205.52,136.15c0,3.89,3.16,7.15,7.09,7.15c3.92,0,7.08-3.25,7.08-7.15c0-3.92-3.11-7.16-7.08-7.16
		C208.65,128.99,205.52,132.22,205.52,136.15L205.52,136.15z M221.62,136.17c0,4.97-4.09,8.92-9.01,8.92
		c-4.93,0-9.01-3.95-9.01-8.92c0-4.95,4.07-8.96,9.01-8.96C217.53,127.21,221.62,131.22,221.62,136.17"/>
	<path class="st1" d="M203.77,136.17c0-4.84,3.96-8.77,8.84-8.77c4.86,0,8.83,3.93,8.83,8.77c0,4.82-3.97,8.74-8.83,8.74
		C207.74,144.9,203.77,140.99,203.77,136.17L203.77,136.17z M203.42,136.17c0,5.01,4.12,9.1,9.19,9.1c5.06,0,9.19-4.08,9.19-9.1
		c0-5.04-4.12-9.14-9.19-9.14C207.54,127.03,203.42,131.12,203.42,136.17"/>
	<path class="st1" d="M205.71,136.15c0-3.84,3.09-6.97,6.9-6.97c3.81,0,6.89,3.13,6.89,6.97c0,3.84-3.08,6.98-6.89,6.98
		C208.8,143.12,205.71,139.99,205.71,136.15L205.71,136.15z M205.34,136.15c0,4.05,3.27,7.33,7.27,7.33c4,0,7.25-3.28,7.25-7.33
		c0-4.04-3.25-7.33-7.25-7.33C208.61,128.82,205.34,132.1,205.34,136.15"/>
	<path class="st1" d="M231.88,135.5h0.6c2.17,0,4.38-0.41,4.38-3.09c0-2.83-2.09-3.12-4.4-3.12h-0.58V135.5L231.88,135.5z
		 M231.88,144.79h-1.92v-17.28h2.5c3.27,0,6.32,0.88,6.32,4.77c0,2.66-1.66,4.54-4.32,4.77l5.5,7.75h-2.36l-5.21-7.59h-0.49V144.79"
		/>
	<path class="st1" d="M232.46,127.68c4.19,0,6.14,1.46,6.14,4.59c0,2.57-1.63,4.38-4.16,4.59l-0.32,0.03c0,0,5.12,7.19,5.49,7.71
		c-0.51,0-2.01,0-2.02,0h0c0-0.13-5.08-7.51-5.08-7.51l-0.63-0.08h-0.18c0,0,0,7.24,0,7.59c-0.26,0-1.3,0-1.56,0
		c0-0.34,0-16.57,0-16.93C230.45,127.68,232.46,127.68,232.46,127.68L232.46,127.68z M229.96,127.33h-0.18v17.64h2.28
		c0,0,0-7.25,0-7.59c0.14,0,0.29,0,0.3,0c0,0.13,5.08,7.51,5.08,7.51l2.51,0.08h0.35c0,0-5.27-7.42-5.55-7.82
		c2.55-0.35,4.21-2.21,4.21-4.87c0-3.34-2.12-4.95-6.5-4.95H229.96"/>
	<path class="st1" d="M232.46,129.48c2.22,0,4.21,0.21,4.21,2.93c0,2.56-2.12,2.9-4.19,2.9c0,0-0.24,0-0.41,0c0-0.33,0-5.51,0-5.83
		C232.24,129.48,232.46,129.48,232.46,129.48L232.46,129.48z M231.88,129.11h-0.18v6.57h0.78c2.12,0,4.56-0.37,4.56-3.27
		c0-3.05-2.37-3.3-4.58-3.3H231.88"/>
	<polyline class="st1" points="257.4,127.51 259.98,127.51 251.87,135.56 260.26,144.79 257.6,144.79 250.51,136.86 250.03,137.33 
		250.03,144.79 248.11,144.79 248.11,127.51 250.03,127.51 250.03,134.91 257.4,127.51 	"/>
	<path class="st1" d="M259.54,127.68c-0.58,0.58-7.92,7.87-7.92,7.87s7.72,8.49,8.23,9.06c-0.6,0-2.25,0-2.25,0
		c0-0.09-6.95-7.87-6.95-7.87l-0.12-0.15l-0.62,0.62c0,0-0.05,7.06-0.05,7.4c-0.27,0-1.3,0-1.56,0c0-0.34,0-16.57,0-16.93
		c0.26,0,1.29,0,1.56,0c0,0.35,0,7.67,0,7.67s7.51-7.56,7.61-7.67C257.58,127.68,258.96,127.68,259.54,127.68L259.54,127.68z
		 M259.98,127.33h-2.66c0,0-6.55,6.57-7.11,7.15c0-0.78,0-7.15,0-7.15h-2.28v17.64h2.28c0,0,0-7.58,0-7.61
		c0.02,0.01,0.17-0.13,0.28-0.24c0.24,0.26,6.97,7.79,6.97,7.79l2.79,0.06h0.41c0,0-8.32-9.16-8.56-9.41
		c0.25-0.25,8.3-8.24,8.3-8.24H259.98"/>
</g>
</svg>
