<svg id="Layer_1" data-name="Layer 1" xmlns="http://www.w3.org/2000/svg" viewBox="0 0 216 137.21"><defs><style>.cls-1{fill:#fff;}.cls-2{fill:#f7b600;}.cls-3{fill:#1a1f71;}</style></defs><title>visa_pos_fc_rgb</title><rect class="cls-1" width="216" height="137.21"/><rect class="cls-2" x="3.6" y="114.91" width="208.8" height="18.72"/><rect class="cls-3" x="3.6" y="3.6" width="208.8" height="18.72"/><path class="cls-3" d="M286.09,370.81l-21.57,51.45H250.45L239.84,381.2c-.65-2.53-1.21-3.46-3.16-4.52a55.56,55.56,0,0,0-13.14-4.38l.32-1.49h22.65a6.2,6.2,0,0,1,6.14,5.24l5.61,29.78,13.85-35Zm55.13,34.65c.06-13.58-18.77-14.33-18.64-20.4,0-1.84,1.8-3.8,5.64-4.31a25.19,25.19,0,0,1,13.13,2.31l2.33-10.92a35.82,35.82,0,0,0-12.45-2.27c-13.16,0-22.42,7-22.49,17-.08,7.4,6.61,11.53,11.65,14,5.19,2.52,6.93,4.14,6.9,6.39,0,3.46-4.14,5-8,5a27.79,27.79,0,0,1-13.67-3.25l-2.41,11.28c3.11,1.43,8.85,2.67,14.79,2.73,14,0,23.14-6.91,23.18-17.61M376,422.26h12.3l-10.75-51.45H366.18a6.07,6.07,0,0,0-5.68,3.77l-20,47.68h14l2.78-7.68h17.07ZM361.12,404l7-19.32,4,19.32Zm-56-33.22-11,51.45H280.79l11-51.45Z" transform="translate(-198.91 -327.86)"/></svg>