<?xml version="1.0" standalone="no"?>
<!DOCTYPE svg PUBLIC "-//W3C//DTD SVG 20010904//EN"
 "http://www.w3.org/TR/2001/REC-SVG-20010904/DTD/svg10.dtd">
<svg version="1.0" xmlns="http://www.w3.org/2000/svg"
 width="512.000000pt" height="512.000000pt" viewBox="0 0 512.000000 512.000000"
 preserveAspectRatio="xMidYMid meet">
<metadata>
Created by potrace 1.11, written by Peter Selinger 2001-2013
</metadata>
<g transform="translate(0.000000,512.000000) scale(0.100000,-0.100000)"
fill="#000000" stroke="none">
<path d="M3380 4340 l0 -118 69 -17 c340 -83 624 -382 691 -727 l11 -57 112 1
c62 0 115 5 118 10 6 10 -9 90 -36 188 -66 238 -242 486 -449 631 -132 94
-323 176 -458 197 l-58 9 0 -117z"/>
<path d="M3380 3931 l0 -99 64 -30 c36 -17 84 -45 108 -63 87 -66 170 -184
198 -281 l10 -36 100 0 c55 0 100 3 100 8 0 4 -10 39 -21 76 -72 235 -244 415
-474 499 -38 14 -73 25 -77 25 -5 0 -8 -45 -8 -99z"/>
<path d="M1429 3510 l-216 -5 -48 -30 c-59 -37 -110 -101 -126 -158 -8 -30
-11 -334 -11 -1068 l0 -1025 22 -52 c25 -57 89 -122 147 -149 35 -16 112 -17
1060 -19 931 -1 1026 0 1071 15 67 23 122 69 158 133 l29 53 3 1034 c2 945 1
1039 -14 1085 -9 27 -28 61 -40 75 -13 14 -24 29 -24 32 0 11 -73 55 -113 68
-29 10 -234 13 -860 14 -452 1 -919 0 -1038 -3z m1676 -219 c89 -24 168 -104
194 -196 7 -28 11 -286 11 -836 0 -861 0 -854 -54 -927 -13 -19 -42 -46 -63
-62 -78 -57 -66 -56 -938 -55 -783 1 -801 1 -845 21 -88 41 -152 117 -166 199
-4 22 -7 398 -7 836 0 849 0 834 50 910 23 35 88 88 128 104 44 17 179 20 900
18 498 -1 764 -5 790 -12z"/>
<path d="M1462 2262 l3 -637 60 0 60 0 0 635 0 635 -63 2 -62 2 2 -637z"/>
<path d="M1666 2891 c-2 -3 -4 -290 -4 -636 l0 -630 52 1 c28 1 56 2 61 3 7 1
10 208 10 634 l0 632 -58 1 c-31 1 -59 -1 -61 -5z"/>
<path d="M1865 2888 c-2 -7 -3 -294 -2 -638 l2 -625 50 -1 c28 0 55 1 60 3 7
2 10 218 10 636 l0 632 -58 3 c-40 2 -58 -1 -62 -10z"/>
<path d="M2069 2891 c-1 -3 -2 -288 -3 -633 -1 -550 1 -627 14 -631 8 -1 35
-3 60 -2 l45 0 0 635 0 635 -57 1 c-32 1 -59 -2 -59 -5z"/>
<path d="M2268 2887 c-4 -10 -3 -1205 1 -1247 1 -13 14 -16 59 -15 l57 0 2
636 2 635 -58 2 c-39 1 -60 -3 -63 -11z"/>
<path d="M2469 2876 c0 -26 0 -1204 1 -1231 0 -18 7 -20 60 -21 l60 0 0 638 0
638 -60 -1 c-54 -1 -60 -4 -61 -23z"/>
<path d="M2670 2872 c-1 -40 -1 -1193 -1 -1222 1 -24 4 -25 61 -26 l60 0 0
637 0 636 -60 1 c-58 0 -60 -1 -60 -26z"/>
<path d="M2869 2867 c0 -37 0 -848 1 -1082 l0 -161 60 0 c57 0 60 1 61 26 0
31 0 1196 -1 1227 0 20 -5 22 -60 22 l-60 -1 -1 -31z"/>
</g>
</svg>
